Kamikaze.ufo
<glyph name="quotedbl" format="2">
  <advance width="430"/>
  <unicode hex="0022"/>
  <outline>
    <contour>
      <point x="204" y="626" type="line"/>
      <point x="170" y="346" type="line"/>
      <point x="55" y="346" type="line"/>
      <point x="26" y="626" type="line"/>
    </contour>
    <contour>
      <point x="410" y="626" type="line"/>
      <point x="376" y="346" type="line"/>
      <point x="261" y="346" type="line"/>
      <point x="232" y="626" type="line"/>
    </contour>
  </outline>
</glyph>
<glyph name="dollar" format="2">
  <advance width="447"/>
  <unicode hex="0024"/>
  <outline>
    <contour>
      <point x="269" y="560" type="line"/>
      <point x="427" y="560" type="line"/>
      <point x="427" y="458" type="line"/>
      <point x="323" y="458" type="line" smooth="yes"/>
      <point x="217" y="458"/>
      <point x="182" y="459"/>
      <point x="175" y="459" type="qcurve" smooth="yes"/>
      <point x="159" y="459"/>
      <point x="140" y="455"/>
      <point x="134" y="445" type="qcurve"/>
      <point x="128" y="438"/>
      <point x="128" y="418" type="qcurve" smooth="yes"/>
      <point x="128" y="406" type="line" smooth="yes"/>
      <point x="128" y="397"/>
      <point x="132" y="389"/>
      <point x="140" y="386"/>
      <point x="147" y="386" type="qcurve" smooth="yes"/>
      <point x="334" y="386" type="line" smooth="yes"/>
      <point x="354" y="386"/>
      <point x="387" y="370"/>
      <point x="413" y="345"/>
      <point x="427" y="311"/>
      <point x="427" y="292" type="qcurve" smooth="yes"/>
      <point x="427" y="242" type="line" smooth="yes"/>
      <point x="427" y="214"/>
      <point x="405" y="164"/>
      <point x="369" y="128"/>
      <point x="319" y="107"/>
      <point x="292" y="107" type="qcurve" smooth="yes"/>
      <point x="269" y="107" type="line"/>
      <point x="269" y="-1" type="line"/>
      <point x="165" y="-1" type="line"/>
      <point x="165" y="107" type="line"/>
      <point x="22" y="107" type="line"/>
      <point x="22" y="209" type="line"/>
      <point x="239" y="209" type="line" smooth="yes"/>
      <point x="256" y="209"/>
      <point x="277" y="208"/>
      <point x="281" y="208" type="qcurve" smooth="yes"/>
      <point x="291" y="208"/>
      <point x="310" y="212"/>
      <point x="316" y="221" type="qcurve" smooth="yes"/>
      <point x="322" y="229"/>
      <point x="323" y="249" type="qcurve"/>
      <point x="323" y="261" type="line" smooth="yes"/>
      <point x="323" y="270"/>
      <point x="318" y="278"/>
      <point x="310" y="281"/>
      <point x="304" y="281" type="qcurve" smooth="yes"/>
      <point x="117" y="281" type="line" smooth="yes"/>
      <point x="97" y="281"/>
      <point x="63" y="297"/>
      <point x="38" y="322"/>
      <point x="30" y="338" type="qcurve" smooth="yes"/>
      <point x="22" y="356"/>
      <point x="22" y="375" type="qcurve" smooth="yes"/>
      <point x="22" y="426" type="line" smooth="yes"/>
      <point x="22" y="453"/>
      <point x="44" y="503"/>
      <point x="81" y="539"/>
      <point x="130" y="560"/>
      <point x="158" y="560" type="qcurve" smooth="yes"/>
      <point x="165" y="560" type="line"/>
      <point x="165" y="675" type="line"/>
      <point x="269" y="675" type="line"/>
    </contour>
  </outline>
</glyph>
<glyph name="percent" format="2">
  <advance width="879"/>
  <unicode hex="0025"/>
  <outline>
    <contour>
      <point x="634" y="671" type="line"/>
      <point x="403" y="1" type="line"/>
      <point x="245" y="1" type="line"/>
      <point x="476" y="671" type="line"/>
    </contour>
    <contour>
      <point x="218" y="451" type="line"/>
      <point x="218" y="554" type="line"/>
      <point x="154" y="554" type="line"/>
      <point x="154" y="451" type="line"/>
    </contour>
    <contour>
      <point x="340" y="329" type="line"/>
      <point x="33" y="329" type="line"/>
      <point x="33" y="676" type="line"/>
      <point x="340" y="676" type="line"/>
    </contour>
    <contour>
      <point x="734" y="123" type="line"/>
      <point x="734" y="226" type="line"/>
      <point x="670" y="226" type="line"/>
      <point x="670" y="123" type="line"/>
    </contour>
    <contour>
      <point x="856" y="1" type="line"/>
      <point x="549" y="1" type="line"/>
      <point x="549" y="348" type="line"/>
      <point x="856" y="348" type="line"/>
    </contour>
  </outline>
</glyph>
<glyph name="quotesingle" format="2">
  <advance width="233"/>
  <unicode hex="0027"/>
  <outline>
    <contour>
      <point x="204" y="626" type="line"/>
      <point x="170" y="338" type="line"/>
      <point x="55" y="338" type="line"/>
      <point x="26" y="626" type="line"/>
    </contour>
  </outline>
</glyph>
<glyph name="parenleft" format="2">
  <advance width="353"/>
  <unicode hex="0028"/>
  <outline>
    <contour>
      <point x="172" y="-174" type="line"/>
      <point x="110" y="-72"/>
      <point x="47" y="123"/>
      <point x="30" y="270"/>
      <point x="30" y="323" type="qcurve" smooth="yes"/>
      <point x="30" y="351"/>
      <point x="37" y="455"/>
      <point x="51" y="517" type="qcurve" smooth="yes"/>
      <point x="66" y="584"/>
      <point x="106" y="694"/>
      <point x="144" y="772"/>
      <point x="170" y="815"/>
      <point x="172" y="817" type="qcurve"/>
      <point x="325" y="715" type="line"/>
      <point x="307" y="686"/>
      <point x="289" y="649" type="qcurve" smooth="yes"/>
      <point x="274" y="617"/>
      <point x="241" y="528"/>
      <point x="230" y="473" type="qcurve" smooth="yes"/>
      <point x="213" y="392"/>
      <point x="213" y="314" type="qcurve" smooth="yes"/>
      <point x="213" y="251"/>
      <point x="248" y="54"/>
      <point x="325" y="-79" type="qcurve"/>
    </contour>
  </outline>
</glyph>
<glyph name="parenright" format="2">
  <advance width="353"/>
  <unicode hex="0029"/>
  <outline>
    <contour>
      <point x="182" y="-174" type="qcurve"/>
      <point x="29" y="-79" type="line"/>
      <point x="106" y="54"/>
      <point x="141" y="251"/>
      <point x="141" y="314" type="qcurve" smooth="yes"/>
      <point x="141" y="392"/>
      <point x="124" y="473" type="qcurve" smooth="yes"/>
      <point x="113" y="528"/>
      <point x="80" y="617"/>
      <point x="65" y="649" type="qcurve" smooth="yes"/>
      <point x="47" y="686"/>
      <point x="29" y="715" type="qcurve"/>
      <point x="182" y="817" type="line"/>
      <point x="183" y="815"/>
      <point x="210" y="772"/>
      <point x="248" y="694"/>
      <point x="288" y="584"/>
      <point x="303" y="517" type="qcurve" smooth="yes"/>
      <point x="316" y="455"/>
      <point x="324" y="349"/>
      <point x="324" y="320" type="qcurve" smooth="yes"/>
      <point x="324" y="268"/>
      <point x="307" y="123"/>
      <point x="244" y="-72"/>
    </contour>
  </outline>
</glyph>
<glyph name="less" format="2">
  <advance width="553"/>
  <unicode hex="003C"/>
  <outline>
    <contour>
      <point x="15" y="406" type="line"/>
      <point x="299" y="624" type="line"/>
      <point x="537" y="624" type="line"/>
      <point x="170" y="343" type="line"/>
      <point x="537" y="62" type="line"/>
      <point x="299" y="62" type="line"/>
      <point x="15" y="280" type="line"/>
    </contour>
  </outline>
</glyph>
<glyph name="greater" format="2">
  <advance width="559"/>
  <unicode hex="003E"/>
  <outline>
    <contour>
      <point x="538" y="280" type="line"/>
      <point x="254" y="62" type="line"/>
      <point x="16" y="62" type="line"/>
      <point x="383" y="343" type="line"/>
      <point x="16" y="624" type="line"/>
      <point x="254" y="624" type="line"/>
      <point x="538" y="406" type="line"/>
    </contour>
  </outline>
</glyph>
<glyph name="asciicircum" format="2">
  <advance width="593"/>
  <unicode hex="005E"/>
  <outline>
    <contour>
      <point x="358" y="676" type="line"/>
      <point x="576" y="392" type="line"/>
      <point x="576" y="154" type="line"/>
      <point x="295" y="521" type="line"/>
      <point x="14" y="154" type="line"/>
      <point x="14" y="392" type="line"/>
      <point x="232" y="676" type="line"/>
    </contour>
  </outline>
</glyph>
<glyph name="grave" format="2">
  <advance width="301"/>
  <unicode hex="0060"/>
  <outline>
    <contour>
      <point x="113" y="969" type="line"/>
      <point x="288" y="814" type="line"/>
      <point x="227" y="730" type="line"/>
      <point x="17" y="824" type="line"/>
    </contour>
  </outline>
</glyph>
<glyph name="braceleft" format="2">
  <advance width="493"/>
  <unicode hex="007B"/>
  <outline>
    <contour>
      <point x="338" y="-15" type="line" smooth="yes"/>
      <point x="338" y="-44"/>
      <point x="359" y="-87"/>
      <point x="395" y="-115"/>
      <point x="443" y="-128"/>
      <point x="469" y="-128" type="qcurve"/>
      <point x="469" y="-315" type="line"/>
      <point x="403" y="-315"/>
      <point x="287" y="-272"/>
      <point x="200" y="-194"/>
      <point x="150" y="-83"/>
      <point x="150" y="-15" type="qcurve" smooth="yes"/>
      <point x="150" y="128" type="line" smooth="yes"/>
      <point x="150" y="157"/>
      <point x="129" y="200"/>
      <point x="93" y="228"/>
      <point x="69" y="234" type="qcurve"/>
      <point x="49" y="240"/>
      <point x="28" y="241" type="qcurve"/>
      <point x="19" y="241" type="line"/>
      <point x="19" y="428" type="line"/>
      <point x="30" y="428" type="line"/>
      <point x="50" y="429"/>
      <point x="69" y="434" type="qcurve" smooth="yes"/>
      <point x="93" y="441"/>
      <point x="129" y="469"/>
      <point x="150" y="512"/>
      <point x="150" y="541" type="qcurve" smooth="yes"/>
      <point x="150" y="678" type="line" smooth="yes"/>
      <point x="150" y="746"/>
      <point x="200" y="857"/>
      <point x="287" y="935"/>
      <point x="403" y="978"/>
      <point x="469" y="978" type="qcurve"/>
      <point x="469" y="791" type="line"/>
      <point x="443" y="791"/>
      <point x="395" y="778"/>
      <point x="359" y="750"/>
      <point x="338" y="707"/>
      <point x="338" y="678" type="qcurve" smooth="yes"/>
      <point x="338" y="541" type="line" smooth="yes"/>
      <point x="338" y="473"/>
      <point x="313" y="417" type="qcurve" smooth="yes"/>
      <point x="292" y="370"/>
      <point x="257" y="334" type="qcurve"/>
      <point x="292" y="299"/>
      <point x="313" y="251" type="qcurve" smooth="yes"/>
      <point x="338" y="196"/>
      <point x="338" y="128" type="qcurve" smooth="yes"/>
    </contour>
  </outline>
</glyph>
<glyph name="bar" format="2">
  <advance width="238"/>
  <unicode hex="007C"/>
  <outline>
    <contour>
      <point x="23" y="856" type="line"/>
      <point x="211" y="856" type="line"/>
      <point x="211" y="-200" type="line"/>
      <point x="23" y="-200" type="line"/>
    </contour>
  </outline>
</glyph>
<glyph name="braceright" format="2">
  <advance width="489"/>
  <unicode hex="007D"/>
  <outline>
    <contour>
      <point x="151" y="128" type="line" smooth="yes"/>
      <point x="151" y="196"/>
      <point x="176" y="251" type="qcurve" smooth="yes"/>
      <point x="197" y="299"/>
      <point x="232" y="334" type="qcurve"/>
      <point x="197" y="370"/>
      <point x="176" y="417" type="qcurve" smooth="yes"/>
      <point x="151" y="473"/>
      <point x="151" y="541" type="qcurve" smooth="yes"/>
      <point x="151" y="678" type="line" smooth="yes"/>
      <point x="151" y="707"/>
      <point x="130" y="750"/>
      <point x="94" y="778"/>
      <point x="46" y="791"/>
      <point x="20" y="791" type="qcurve"/>
      <point x="20" y="978" type="line"/>
      <point x="86" y="978"/>
      <point x="202" y="935"/>
      <point x="289" y="857"/>
      <point x="339" y="746"/>
      <point x="339" y="678" type="qcurve" smooth="yes"/>
      <point x="339" y="541" type="line" smooth="yes"/>
      <point x="339" y="512"/>
      <point x="360" y="469"/>
      <point x="396" y="441"/>
      <point x="420" y="434" type="qcurve" smooth="yes"/>
      <point x="439" y="429"/>
      <point x="459" y="428" type="qcurve"/>
      <point x="470" y="428" type="line"/>
      <point x="470" y="241" type="line"/>
      <point x="461" y="241" type="line"/>
      <point x="440" y="240"/>
      <point x="420" y="234" type="qcurve"/>
      <point x="396" y="228"/>
      <point x="360" y="200"/>
      <point x="339" y="157"/>
      <point x="339" y="128" type="qcurve" smooth="yes"/>
      <point x="339" y="-15" type="line" smooth="yes"/>
      <point x="339" y="-83"/>
      <point x="289" y="-194"/>
      <point x="202" y="-272"/>
      <point x="86" y="-315"/>
      <point x="20" y="-315" type="qcurve"/>
      <point x="20" y="-128" type="line"/>
      <point x="46" y="-128"/>
      <point x="94" y="-115"/>
      <point x="130" y="-87"/>
      <point x="151" y="-44"/>
      <point x="151" y="-15" type="qcurve" smooth="yes"/>
    </contour>
  </outline>
</glyph>
<glyph name="asciitilde" format="2">
  <advance width="588"/>
  <unicode hex="007E"/>
  <outline>
    <contour>
      <point x="430" y="412" type="line" smooth="yes"/>
      <point x="434" y="411"/>
      <point x="439" y="411" type="qcurve" smooth="yes"/>
      <point x="450" y="411"/>
      <point x="473" y="425"/>
      <point x="484" y="436" type="qcurve" smooth="yes"/>
      <point x="496" y="448"/>
      <point x="506" y="465" type="qcurve"/>
      <point x="570" y="449" type="line"/>
      <point x="556" y="399"/>
      <point x="521" y="330"/>
      <point x="482" y="285"/>
      <point x="441" y="260"/>
      <point x="422" y="255" type="qcurve" smooth="yes"/>
      <point x="403" y="250"/>
      <point x="384" y="250" type="qcurve" smooth="yes"/>
      <point x="357" y="250"/>
      <point x="329" y="260" type="qcurve"/>
      <point x="162" y="306" type="line" smooth="yes"/>
      <point x="158" y="307"/>
      <point x="154" y="307" type="qcurve" smooth="yes"/>
      <point x="142" y="307"/>
      <point x="119" y="292"/>
      <point x="108" y="281" type="qcurve" smooth="yes"/>
      <point x="96" y="268"/>
      <point x="85" y="251" type="qcurve"/>
      <point x="21" y="269" type="line"/>
      <point x="35" y="318"/>
      <point x="71" y="386"/>
      <point x="110" y="431"/>
      <point x="151" y="456"/>
      <point x="170" y="462" type="qcurve" smooth="yes"/>
      <point x="190" y="468"/>
      <point x="211" y="468" type="qcurve" smooth="yes"/>
      <point x="237" y="468"/>
      <point x="263" y="459" type="qcurve"/>
    </contour>
  </outline>
</glyph>
<glyph name="cent" format="2">
  <advance width="428"/>
  <unicode hex="00A2"/>
  <outline>
    <contour>
      <point x="154" y="675" type="line"/>
      <point x="280" y="675" type="line"/>
      <point x="280" y="560" type="line"/>
      <point x="411" y="560" type="line"/>
      <point x="411" y="396" type="line"/>
      <point x="285" y="396" type="line"/>
      <point x="285" y="434" type="line"/>
      <point x="184" y="434" type="line"/>
      <point x="184" y="345" type="line" smooth="yes"/>
      <point x="184" y="312"/>
      <point x="206" y="270"/>
      <point x="241" y="245"/>
      <point x="288" y="234"/>
      <point x="331" y="231"/>
      <point x="347" y="231" type="qcurve" smooth="yes"/>
      <point x="356" y="231"/>
      <point x="389" y="232"/>
      <point x="411" y="232" type="qcurve"/>
      <point x="411" y="105" type="line"/>
      <point x="298" y="105" type="line" smooth="yes"/>
      <point x="289" y="105"/>
      <point x="280" y="106" type="qcurve"/>
      <point x="280" y="0" type="line"/>
      <point x="154" y="0" type="line"/>
      <point x="154" y="153" type="line"/>
      <point x="140" y="163"/>
      <point x="128" y="175" type="qcurve" smooth="yes"/>
      <point x="95" y="208"/>
      <point x="58" y="295"/>
      <point x="58" y="345" type="qcurve" smooth="yes"/>
      <point x="58" y="421" type="line"/>
      <point x="20" y="421" type="line"/>
      <point x="20" y="560" type="line"/>
      <point x="154" y="560" type="line"/>
    </contour>
  </outline>
</glyph>
<glyph name="sterling" format="2">
  <advance width="597"/>
  <unicode hex="00A3"/>
  <outline>
    <contour>
      <point x="429" y="675" type="line"/>
      <point x="429" y="522" type="line"/>
      <point x="318" y="522" type="line"/>
      <point x="301" y="521"/>
      <point x="285" y="517" type="qcurve" smooth="yes"/>
      <point x="265" y="512"/>
      <point x="236" y="489"/>
      <point x="219" y="454"/>
      <point x="219" y="430" type="qcurve" smooth="yes"/>
      <point x="219" y="342" type="line"/>
      <point x="365" y="342" type="line"/>
      <point x="365" y="217" type="line"/>
      <point x="219" y="217" type="line"/>
      <point x="219" y="153" type="line"/>
      <point x="399" y="153" type="line" smooth="yes"/>
      <point x="411" y="153"/>
      <point x="424" y="160"/>
      <point x="429" y="172"/>
      <point x="430" y="189"/>
      <point x="430" y="198" type="qcurve"/>
      <point x="583" y="198" type="line"/>
      <point x="583" y="137" type="line" smooth="yes"/>
      <point x="583" y="109"/>
      <point x="561" y="59"/>
      <point x="524" y="22"/>
      <point x="474" y="0"/>
      <point x="446" y="0" type="qcurve" smooth="yes"/>
      <point x="21" y="0" type="line"/>
      <point x="21" y="153" type="line"/>
      <point x="66" y="153" type="line"/>
      <point x="66" y="217" type="line"/>
      <point x="18" y="217" type="line"/>
      <point x="18" y="342" type="line"/>
      <point x="66" y="342" type="line"/>
      <point x="66" y="430" type="line" smooth="yes"/>
      <point x="66" y="486"/>
      <point x="107" y="576"/>
      <point x="178" y="639"/>
      <point x="225" y="656" type="qcurve" smooth="yes"/>
      <point x="269" y="672"/>
      <point x="318" y="674" type="qcurve"/>
    </contour>
  </outline>
</glyph>
<glyph name="yen" format="2">
  <advance width="617"/>
  <unicode hex="00A5"/>
  <outline>
    <contour>
      <point x="483" y="255" type="line"/>
      <point x="483" y="124" type="line"/>
      <point x="381" y="124" type="line"/>
      <point x="381" y="0" type="line"/>
      <point x="222" y="0" type="line"/>
      <point x="222" y="124" type="line"/>
      <point x="123" y="124" type="line"/>
      <point x="123" y="255" type="line"/>
      <point x="222" y="255" type="line"/>
      <point x="222" y="299" type="line"/>
      <point x="194" y="299" type="line" smooth="yes"/>
      <point x="163" y="299"/>
      <point x="101" y="308"/>
      <point x="53" y="331"/>
      <point x="24" y="374"/>
      <point x="24" y="411" type="qcurve" smooth="yes"/>
      <point x="24" y="675" type="line"/>
      <point x="183" y="675" type="line"/>
      <point x="183" y="446" type="line"/>
      <point x="436" y="446" type="line"/>
      <point x="436" y="675" type="line"/>
      <point x="595" y="675" type="line"/>
      <point x="595" y="411" type="line" smooth="yes"/>
      <point x="595" y="374"/>
      <point x="566" y="331"/>
      <point x="517" y="308"/>
      <point x="456" y="299"/>
      <point x="423" y="299" type="qcurve" smooth="yes"/>
      <point x="381" y="299" type="line"/>
      <point x="381" y="255" type="line"/>
    </contour>
  </outline>
</glyph>
<glyph name="brokenbar" format="2">
  <advance width="238"/>
  <unicode hex="00A6"/>
  <outline>
    <contour>
      <point x="23" y="-200" type="line"/>
      <point x="23" y="241" type="line"/>
      <point x="211" y="241" type="line"/>
      <point x="211" y="-200" type="line"/>
    </contour>
    <contour>
      <point x="23" y="856" type="line"/>
      <point x="211" y="856" type="line"/>
      <point x="211" y="435" type="line"/>
      <point x="23" y="435" type="line"/>
    </contour>
  </outline>
</glyph>
<glyph name="section" format="2">
  <advance width="498"/>
  <unicode hex="00A7"/>
  <outline>
    <contour>
      <point x="450" y="194" type="qcurve"/>
      <point x="459" y="181"/>
      <point x="483" y="124"/>
      <point x="483" y="79" type="qcurve" smooth="yes"/>
      <point x="483" y="40"/>
      <point x="452" y="-15"/>
      <point x="407" y="-52"/>
      <point x="358" y="-72"/>
      <point x="339" y="-75" type="qcurve"/>
      <point x="28" y="-75" type="line"/>
      <point x="28" y="51" type="line"/>
      <point x="322" y="51" type="line"/>
      <point x="326" y="52"/>
      <point x="338" y="56"/>
      <point x="350" y="62"/>
      <point x="358" y="72"/>
      <point x="358" y="79" type="qcurve" smooth="yes"/>
      <point x="358" y="99"/>
      <point x="351" y="113"/>
      <point x="348" y="115" type="qcurve"/>
      <point x="343" y="115" type="line"/>
      <point x="67" y="278" type="line"/>
      <point x="61" y="286" type="line" smooth="yes"/>
      <point x="52" y="298"/>
      <point x="34" y="337"/>
      <point x="30" y="370"/>
      <point x="30" y="379" type="qcurve" smooth="yes"/>
      <point x="30" y="395"/>
      <point x="38" y="439"/>
      <point x="56" y="468" type="qcurve"/>
      <point x="47" y="482"/>
      <point x="21" y="539"/>
      <point x="21" y="582" type="qcurve" smooth="yes"/>
      <point x="21" y="622"/>
      <point x="53" y="679"/>
      <point x="98" y="715"/>
      <point x="148" y="734"/>
      <point x="167" y="737" type="qcurve"/>
      <point x="479" y="737" type="line"/>
      <point x="479" y="612" type="line"/>
      <point x="184" y="612" type="line"/>
      <point x="180" y="611"/>
      <point x="167" y="608"/>
      <point x="155" y="601"/>
      <point x="146" y="590"/>
      <point x="146" y="582" type="qcurve" smooth="yes"/>
      <point x="146" y="564"/>
      <point x="155" y="551"/>
      <point x="156" y="549" type="qcurve"/>
      <point x="161" y="547" type="line"/>
      <point x="440" y="387" type="line"/>
      <point x="445" y="378" type="line"/>
      <point x="455" y="366"/>
      <point x="473" y="327"/>
      <point x="477" y="293"/>
      <point x="477" y="284" type="qcurve" smooth="yes"/>
      <point x="477" y="268"/>
      <point x="469" y="223"/>
    </contour>
    <contour>
      <point x="342" y="262" type="line"/>
      <point x="347" y="270"/>
      <point x="352" y="287"/>
      <point x="352" y="291" type="qcurve"/>
      <point x="352" y="293"/>
      <point x="352" y="294" type="qcurve"/>
      <point x="162" y="404" type="line"/>
      <point x="157" y="394"/>
      <point x="154" y="379"/>
      <point x="154" y="376" type="qcurve" smooth="yes"/>
      <point x="154" y="373"/>
      <point x="155" y="371" type="qcurve"/>
    </contour>
  </outline>
</glyph>
<glyph name="dieresis" format="2">
  <advance width="488"/>
  <unicode hex="00A8"/>
  <outline>
    <contour>
      <point x="283" y="827" type="qcurve" smooth="yes"/>
      <point x="283" y="865"/>
      <point x="336" y="919"/>
      <point x="374" y="919" type="qcurve" smooth="yes"/>
      <point x="412" y="919"/>
      <point x="465" y="865"/>
      <point x="465" y="827" type="qcurve" smooth="yes"/>
      <point x="465" y="789"/>
      <point x="412" y="737"/>
      <point x="374" y="737" type="qcurve" smooth="yes"/>
      <point x="336" y="737"/>
      <point x="283" y="789"/>
    </contour>
    <contour>
      <point x="19" y="827" type="qcurve" smooth="yes"/>
      <point x="19" y="865"/>
      <point x="72" y="919"/>
      <point x="110" y="919" type="qcurve" smooth="yes"/>
      <point x="148" y="919"/>
      <point x="201" y="865"/>
      <point x="201" y="827" type="qcurve" smooth="yes"/>
      <point x="201" y="789"/>
      <point x="148" y="737"/>
      <point x="110" y="737" type="qcurve" smooth="yes"/>
      <point x="72" y="737"/>
      <point x="19" y="789"/>
    </contour>
  </outline>
</glyph>
<glyph name="copyright" format="2">
  <advance width="567"/>
  <unicode hex="00A9"/>
  <outline>
    <contour>
      <point x="284" y="160" type="qcurve" smooth="yes"/>
      <point x="230" y="160"/>
      <point x="136" y="200"/>
      <point x="66" y="271"/>
      <point x="25" y="365"/>
      <point x="25" y="419" type="qcurve" smooth="yes"/>
      <point x="25" y="472"/>
      <point x="66" y="566"/>
      <point x="136" y="636"/>
      <point x="230" y="676"/>
      <point x="284" y="676" type="qcurve" smooth="yes"/>
      <point x="337" y="676"/>
      <point x="431" y="636"/>
      <point x="501" y="566"/>
      <point x="541" y="472"/>
      <point x="541" y="419" type="qcurve" smooth="yes"/>
      <point x="541" y="365"/>
      <point x="501" y="271"/>
      <point x="431" y="200"/>
      <point x="337" y="160"/>
    </contour>
    <contour>
      <point x="284" y="624" type="qcurve" smooth="yes"/>
      <point x="241" y="624"/>
      <point x="165" y="591"/>
      <point x="109" y="536"/>
      <point x="77" y="461"/>
      <point x="77" y="419" type="qcurve" smooth="yes"/>
      <point x="77" y="376"/>
      <point x="109" y="300"/>
      <point x="165" y="244"/>
      <point x="241" y="212"/>
      <point x="284" y="212" type="qcurve" smooth="yes"/>
      <point x="326" y="212"/>
      <point x="401" y="244"/>
      <point x="456" y="300"/>
      <point x="489" y="376"/>
      <point x="489" y="419" type="qcurve" smooth="yes"/>
      <point x="489" y="461"/>
      <point x="456" y="536"/>
      <point x="401" y="591"/>
      <point x="326" y="624"/>
    </contour>
    <contour>
      <point x="397" y="442" type="line"/>
      <point x="316" y="442" type="line"/>
      <point x="316" y="467" type="line"/>
      <point x="251" y="467" type="line"/>
      <point x="251" y="410" type="line" smooth="yes"/>
      <point x="251" y="389"/>
      <point x="265" y="361"/>
      <point x="288" y="345"/>
      <point x="318" y="338"/>
      <point x="345" y="336"/>
      <point x="356" y="336" type="qcurve" smooth="yes"/>
      <point x="361" y="336"/>
      <point x="383" y="337"/>
      <point x="397" y="337" type="qcurve"/>
      <point x="397" y="256" type="line"/>
      <point x="324" y="256" type="line" smooth="yes"/>
      <point x="292" y="256"/>
      <point x="236" y="280"/>
      <point x="194" y="322"/>
      <point x="170" y="378"/>
      <point x="170" y="410" type="qcurve" smooth="yes"/>
      <point x="170" y="459" type="line"/>
      <point x="146" y="459" type="line"/>
      <point x="146" y="548" type="line"/>
      <point x="397" y="548" type="line"/>
    </contour>
  </outline>
</glyph>
<glyph name="guillemotleft" format="2">
  <advance width="751"/>
  <unicode hex="00AB"/>
  <outline>
    <contour>
      <point x="17" y="334" type="line"/>
      <point x="250" y="512" type="line"/>
      <point x="451" y="512" type="line"/>
      <point x="149" y="281" type="line"/>
      <point x="451" y="51" type="line"/>
      <point x="250" y="51" type="line"/>
      <point x="17" y="229" type="line"/>
    </contour>
    <contour>
      <point x="302" y="334" type="line"/>
      <point x="534" y="512" type="line"/>
      <point x="735" y="512" type="line"/>
      <point x="433" y="281" type="line"/>
      <point x="735" y="51" type="line"/>
      <point x="534" y="51" type="line"/>
      <point x="302" y="229" type="line"/>
    </contour>
  </outline>
</glyph>
<glyph name="registered" format="2">
  <advance width="510"/>
  <unicode hex="00AE"/>
  <outline>
    <contour>
      <point x="254" y="205" type="qcurve" smooth="yes"/>
      <point x="204" y="205"/>
      <point x="118" y="242"/>
      <point x="54" y="306"/>
      <point x="17" y="392"/>
      <point x="17" y="442" type="qcurve" smooth="yes"/>
      <point x="17" y="490"/>
      <point x="54" y="575"/>
      <point x="118" y="639"/>
      <point x="204" y="676"/>
      <point x="254" y="676" type="qcurve" smooth="yes"/>
      <point x="302" y="676"/>
      <point x="387" y="639"/>
      <point x="451" y="575"/>
      <point x="488" y="490"/>
      <point x="488" y="442" type="qcurve" smooth="yes"/>
      <point x="488" y="392"/>
      <point x="451" y="306"/>
      <point x="387" y="242"/>
      <point x="302" y="205"/>
    </contour>
    <contour>
      <point x="254" y="597" type="qcurve" smooth="yes"/>
      <point x="221" y="597"/>
      <point x="164" y="572"/>
      <point x="121" y="530"/>
      <point x="96" y="473"/>
      <point x="96" y="442" type="qcurve" smooth="yes"/>
      <point x="96" y="409"/>
      <point x="121" y="352"/>
      <point x="164" y="309"/>
      <point x="221" y="284"/>
      <point x="254" y="284" type="qcurve" smooth="yes"/>
      <point x="285" y="284"/>
      <point x="342" y="309"/>
      <point x="384" y="352"/>
      <point x="409" y="409"/>
      <point x="409" y="442" type="qcurve" smooth="yes"/>
      <point x="409" y="473"/>
      <point x="384" y="530"/>
      <point x="342" y="572"/>
      <point x="285" y="597"/>
    </contour>
    <contour>
      <point x="336" y="383" type="qcurve"/>
      <point x="336" y="331" type="line"/>
      <point x="318" y="331"/>
      <point x="285" y="340"/>
      <point x="260" y="359"/>
      <point x="243" y="387"/>
      <point x="239" y="406" type="qcurve"/>
      <point x="233" y="406" type="line"/>
      <point x="233" y="331" type="line"/>
      <point x="176" y="331" type="line"/>
      <point x="176" y="406" type="line"/>
      <point x="158" y="406" type="line"/>
      <point x="158" y="463" type="line"/>
      <point x="176" y="463" type="line"/>
      <point x="176" y="480" type="line"/>
      <point x="158" y="480" type="line"/>
      <point x="158" y="538" type="line"/>
      <point x="336" y="538" type="line"/>
      <point x="336" y="457" type="line" smooth="yes"/>
      <point x="336" y="448"/>
      <point x="329" y="431"/>
      <point x="317" y="417"/>
      <point x="302" y="408"/>
      <point x="292" y="406" type="qcurve"/>
      <point x="295" y="400"/>
      <point x="304" y="390"/>
      <point x="316" y="385"/>
      <point x="329" y="383"/>
    </contour>
    <contour>
      <point x="278" y="457" type="line"/>
      <point x="278" y="480" type="line"/>
      <point x="233" y="480" type="line"/>
      <point x="233" y="457" type="line"/>
    </contour>
  </outline>
</glyph>
<glyph name="plusminus" format="2">
  <advance width="459"/>
  <unicode hex="00B1"/>
  <outline>
    <contour>
      <point x="443" y="187" type="line"/>
      <point x="443" y="33" type="line"/>
      <point x="15" y="33" type="line"/>
      <point x="15" y="187" type="line"/>
    </contour>
    <contour>
      <point x="153" y="642" type="line"/>
      <point x="307" y="642" type="line"/>
      <point x="307" y="507" type="line"/>
      <point x="443" y="507" type="line"/>
      <point x="443" y="353" type="line"/>
      <point x="307" y="353" type="line"/>
      <point x="307" y="214" type="line"/>
      <point x="153" y="214" type="line"/>
      <point x="153" y="353" type="line"/>
      <point x="15" y="353" type="line"/>
      <point x="15" y="507" type="line"/>
      <point x="153" y="507" type="line"/>
    </contour>
  </outline>
</glyph>
<glyph name="acute" format="2">
  <advance width="335"/>
  <unicode hex="00B4"/>
  <outline>
    <contour>
      <point x="311" y="869" type="line"/>
      <point x="89" y="745" type="line"/>
      <point x="20" y="839" type="line"/>
      <point x="206" y="1004" type="line"/>
    </contour>
  </outline>
</glyph>
<glyph name="paragraph" format="2">
  <advance width="760"/>
  <unicode hex="00B6"/>
  <outline>
    <contour>
      <point x="717" y="675" type="line"/>
      <point x="717" y="554" type="line"/>
      <point x="669" y="554" type="line"/>
      <point x="669" y="0" type="line"/>
      <point x="548" y="0" type="line"/>
      <point x="548" y="554" type="line"/>
      <point x="443" y="554" type="line"/>
      <point x="443" y="0" type="line"/>
      <point x="322" y="0" type="line"/>
      <point x="322" y="291" type="line"/>
      <point x="230" y="291" type="line" smooth="yes"/>
      <point x="191" y="291"/>
      <point x="121" y="321"/>
      <point x="69" y="373"/>
      <point x="39" y="443"/>
      <point x="39" y="482" type="qcurve" smooth="yes"/>
      <point x="39" y="521"/>
      <point x="69" y="591"/>
      <point x="121" y="643"/>
      <point x="191" y="673"/>
      <point x="230" y="673" type="qcurve" smooth="yes"/>
      <point x="269" y="673" type="line"/>
      <point x="269" y="675" type="line"/>
    </contour>
  </outline>
</glyph>
<glyph name="cedilla" format="2">
  <advance width="299"/>
  <unicode hex="00B8"/>
  <outline>
    <contour>
      <point x="188" y="-56" type="line"/>
      <point x="204" y="-60"/>
      <point x="236" y="-72"/>
      <point x="249" y="-81" type="qcurve"/>
      <point x="260" y="-91"/>
      <point x="276" y="-117"/>
      <point x="276" y="-128" type="qcurve" smooth="yes"/>
      <point x="276" y="-147"/>
      <point x="239" y="-180"/>
      <point x="194" y="-188" type="qcurve"/>
      <point x="195" y="-188" type="line"/>
      <point x="185" y="-190"/>
      <point x="161" y="-192"/>
      <point x="149" y="-192" type="qcurve" smooth="yes"/>
      <point x="125" y="-192"/>
      <point x="82" y="-185"/>
      <point x="46" y="-176"/>
      <point x="19" y="-166"/>
      <point x="12" y="-163" type="qcurve"/>
      <point x="33" y="-119" type="line"/>
      <point x="89" y="-144"/>
      <point x="116" y="-144" type="qcurve" smooth="yes"/>
      <point x="133" y="-144"/>
      <point x="156" y="-132"/>
      <point x="156" y="-123" type="qcurve" smooth="yes"/>
      <point x="156" y="-115"/>
      <point x="138" y="-101"/>
      <point x="112" y="-91"/>
      <point x="84" y="-85"/>
      <point x="74" y="-84" type="qcurve"/>
      <point x="124" y="96" type="line"/>
      <point x="191" y="56" type="line"/>
      <point x="178" y="-54" type="line"/>
    </contour>
  </outline>
</glyph>
<glyph name="guillemotright" format="2">
  <advance width="751"/>
  <unicode hex="00BB"/>
  <outline>
    <contour>
      <point x="450" y="229" type="line"/>
      <point x="218" y="51" type="line"/>
      <point x="17" y="51" type="line"/>
      <point x="319" y="281" type="line"/>
      <point x="17" y="512" type="line"/>
      <point x="218" y="512" type="line"/>
      <point x="450" y="334" type="line"/>
    </contour>
    <contour>
      <point x="735" y="229" type="line"/>
      <point x="502" y="51" type="line"/>
      <point x="301" y="51" type="line"/>
      <point x="603" y="281" type="line"/>
      <point x="301" y="512" type="line"/>
      <point x="502" y="512" type="line"/>
      <point x="735" y="334" type="line"/>
    </contour>
  </outline>
</glyph>
<glyph name="Atilde" format="2">
  <advance width="677"/>
  <unicode hex="00C3"/>
  <outline>
    <contour>
      <point x="461" y="859" type="line"/>
      <point x="464" y="859"/>
      <point x="467" y="859" type="qcurve" smooth="yes"/>
      <point x="476" y="859"/>
      <point x="495" y="869"/>
      <point x="503" y="877" type="qcurve" smooth="yes"/>
      <point x="513" y="887"/>
      <point x="520" y="900" type="qcurve"/>
      <point x="570" y="887" type="line"/>
      <point x="559" y="849"/>
      <point x="532" y="795"/>
      <point x="502" y="760"/>
      <point x="470" y="741"/>
      <point x="455" y="737" type="qcurve" smooth="yes"/>
      <point x="440" y="733"/>
      <point x="425" y="733" type="qcurve" smooth="yes"/>
      <point x="405" y="733"/>
      <point x="383" y="741" type="qcurve"/>
      <point x="254" y="777" type="line"/>
      <point x="251" y="777"/>
      <point x="248" y="777" type="qcurve" smooth="yes"/>
      <point x="239" y="777"/>
      <point x="220" y="766"/>
      <point x="212" y="758" type="qcurve" smooth="yes"/>
      <point x="202" y="747"/>
      <point x="194" y="734" type="qcurve"/>
      <point x="145" y="748" type="line"/>
      <point x="155" y="786"/>
      <point x="183" y="839"/>
      <point x="213" y="874"/>
      <point x="245" y="894"/>
      <point x="260" y="898" type="qcurve" smooth="yes"/>
      <point x="275" y="902"/>
      <point x="291" y="902" type="qcurve" smooth="yes"/>
      <point x="311" y="902"/>
      <point x="332" y="895" type="qcurve"/>
    </contour>
    <contour>
      <point x="245" y="675" type="line"/>
      <point x="245" y="713" type="line"/>
      <point x="433" y="713" type="line"/>
      <point x="433" y="675" type="line"/>
      <point x="658" y="675" type="line"/>
      <point x="658" y="488" type="line"/>
      <point x="601" y="488" type="line"/>
      <point x="601" y="225" type="line" smooth="yes"/>
      <point x="601" y="210"/>
      <point x="610" y="194"/>
      <point x="626" y="187"/>
      <point x="636" y="187" type="qcurve"/>
      <point x="637" y="187" type="line"/>
      <point x="637" y="187"/>
      <point x="637" y="187" type="qcurve"/>
      <point x="638" y="187" type="line"/>
      <point x="639" y="187"/>
      <point x="640" y="187" type="qcurve"/>
      <point x="641" y="187" type="line"/>
      <point x="642" y="187"/>
      <point x="642" y="187" type="qcurve"/>
      <point x="643" y="187" type="line"/>
      <point x="643" y="187"/>
      <point x="644" y="187" type="qcurve"/>
      <point x="646" y="187" type="line"/>
      <point x="646" y="187"/>
      <point x="647" y="187" type="qcurve"/>
      <point x="648" y="187" type="line"/>
      <point x="648" y="187"/>
      <point x="649" y="187" type="qcurve"/>
      <point x="658" y="187" type="line"/>
      <point x="658" y="0" type="line"/>
      <point x="583" y="0" type="line" smooth="yes"/>
      <point x="525" y="0"/>
      <point x="458" y="44"/>
      <point x="423" y="113"/>
      <point x="414" y="200"/>
      <point x="414" y="244" type="qcurve"/>
      <point x="264" y="244" type="line"/>
      <point x="264" y="168" type="line" smooth="yes"/>
      <point x="264" y="133"/>
      <point x="237" y="72"/>
      <point x="191" y="26"/>
      <point x="129" y="0"/>
      <point x="95" y="0" type="qcurve" smooth="yes"/>
      <point x="19" y="0" type="line"/>
      <point x="19" y="187" type="line"/>
      <point x="20" y="187" type="line"/>
      <point x="20" y="187"/>
      <point x="20" y="187" type="qcurve"/>
      <point x="22" y="187" type="line"/>
      <point x="22" y="187"/>
      <point x="23" y="187" type="qcurve"/>
      <point x="25" y="187" type="line"/>
      <point x="26" y="187"/>
      <point x="26" y="187" type="qcurve"/>
      <point x="27" y="187" type="line"/>
      <point x="27" y="187"/>
      <point x="28" y="187" type="qcurve"/>
      <point x="30" y="187" type="line"/>
      <point x="31" y="187"/>
      <point x="31" y="187" type="qcurve"/>
      <point x="32" y="187" type="line"/>
      <point x="32" y="187"/>
      <point x="33" y="187" type="qcurve"/>
      <point x="41" y="187" type="line" smooth="yes"/>
      <point x="51" y="187"/>
      <point x="67" y="194"/>
      <point x="76" y="210"/>
      <point x="76" y="225" type="qcurve" smooth="yes"/>
      <point x="76" y="488" type="line"/>
      <point x="19" y="488" type="line"/>
      <point x="19" y="675" type="line"/>
    </contour>
    <contour>
      <point x="414" y="431" type="line"/>
      <point x="414" y="488" type="line"/>
      <point x="264" y="488" type="line"/>
      <point x="264" y="431" type="line"/>
    </contour>
  </outline>
</glyph>
<glyph name="Adieresis" format="2">
  <advance width="677"/>
  <unicode hex="00C4"/>
  <outline>
    <contour>
      <point x="384" y="827" type="qcurve" smooth="yes"/>
      <point x="384" y="865"/>
      <point x="437" y="919"/>
      <point x="475" y="919" type="qcurve" smooth="yes"/>
      <point x="513" y="919"/>
      <point x="566" y="865"/>
      <point x="566" y="827" type="qcurve" smooth="yes"/>
      <point x="566" y="789"/>
      <point x="513" y="737"/>
      <point x="475" y="737" type="qcurve" smooth="yes"/>
      <point x="437" y="737"/>
      <point x="384" y="789"/>
    </contour>
    <contour>
      <point x="120" y="827" type="qcurve" smooth="yes"/>
      <point x="120" y="865"/>
      <point x="173" y="919"/>
      <point x="211" y="919" type="qcurve" smooth="yes"/>
      <point x="249" y="919"/>
      <point x="302" y="865"/>
      <point x="302" y="827" type="qcurve" smooth="yes"/>
      <point x="302" y="789"/>
      <point x="249" y="737"/>
      <point x="211" y="737" type="qcurve" smooth="yes"/>
      <point x="173" y="737"/>
      <point x="120" y="789"/>
    </contour>
    <contour>
      <point x="245" y="675" type="line"/>
      <point x="245" y="713" type="line"/>
      <point x="433" y="713" type="line"/>
      <point x="433" y="675" type="line"/>
      <point x="658" y="675" type="line"/>
      <point x="658" y="488" type="line"/>
      <point x="601" y="488" type="line"/>
      <point x="601" y="225" type="line" smooth="yes"/>
      <point x="601" y="210"/>
      <point x="610" y="194"/>
      <point x="626" y="187"/>
      <point x="636" y="187" type="qcurve"/>
      <point x="637" y="187" type="line"/>
      <point x="637" y="187"/>
      <point x="637" y="187" type="qcurve"/>
      <point x="638" y="187" type="line"/>
      <point x="639" y="187"/>
      <point x="640" y="187" type="qcurve"/>
      <point x="641" y="187" type="line"/>
      <point x="642" y="187"/>
      <point x="642" y="187" type="qcurve"/>
      <point x="643" y="187" type="line"/>
      <point x="643" y="187"/>
      <point x="644" y="187" type="qcurve"/>
      <point x="646" y="187" type="line"/>
      <point x="646" y="187"/>
      <point x="647" y="187" type="qcurve"/>
      <point x="648" y="187" type="line"/>
      <point x="648" y="187"/>
      <point x="649" y="187" type="qcurve"/>
      <point x="658" y="187" type="line"/>
      <point x="658" y="0" type="line"/>
      <point x="583" y="0" type="line" smooth="yes"/>
      <point x="525" y="0"/>
      <point x="458" y="44"/>
      <point x="423" y="113"/>
      <point x="414" y="200"/>
      <point x="414" y="244" type="qcurve"/>
      <point x="264" y="244" type="line"/>
      <point x="264" y="168" type="line" smooth="yes"/>
      <point x="264" y="133"/>
      <point x="237" y="72"/>
      <point x="191" y="26"/>
      <point x="129" y="0"/>
      <point x="95" y="0" type="qcurve" smooth="yes"/>
      <point x="19" y="0" type="line"/>
      <point x="19" y="187" type="line"/>
      <point x="20" y="187" type="line"/>
      <point x="20" y="187"/>
      <point x="20" y="187" type="qcurve"/>
      <point x="22" y="187" type="line"/>
      <point x="22" y="187"/>
      <point x="23" y="187" type="qcurve"/>
      <point x="25" y="187" type="line"/>
      <point x="26" y="187"/>
      <point x="26" y="187" type="qcurve"/>
      <point x="27" y="187" type="line"/>
      <point x="27" y="187"/>
      <point x="28" y="187" type="qcurve"/>
      <point x="30" y="187" type="line"/>
      <point x="31" y="187"/>
      <point x="31" y="187" type="qcurve"/>
      <point x="32" y="187" type="line"/>
      <point x="32" y="187"/>
      <point x="33" y="187" type="qcurve"/>
      <point x="41" y="187" type="line" smooth="yes"/>
      <point x="51" y="187"/>
      <point x="67" y="194"/>
      <point x="76" y="210"/>
      <point x="76" y="225" type="qcurve" smooth="yes"/>
      <point x="76" y="488" type="line"/>
      <point x="19" y="488" type="line"/>
      <point x="19" y="675" type="line"/>
    </contour>
    <contour>
      <point x="414" y="431" type="line"/>
      <point x="414" y="488" type="line"/>
      <point x="264" y="488" type="line"/>
      <point x="264" y="431" type="line"/>
    </contour>
  </outline>
</glyph>
<glyph name="Iacute" format="2">
  <advance width="285"/>
  <unicode hex="00CD"/>
  <outline>
    <contour>
      <point x="292" y="824" type="line"/>
      <point x="82" y="730" type="line"/>
      <point x="21" y="814" type="line"/>
      <point x="196" y="969" type="line"/>
    </contour>
    <contour>
      <point x="265" y="676" type="line"/>
      <point x="265" y="169" type="line" smooth="yes"/>
      <point x="265" y="134"/>
      <point x="238" y="73"/>
      <point x="192" y="27"/>
      <point x="131" y="0"/>
      <point x="96" y="0" type="qcurve" smooth="yes"/>
      <point x="21" y="0" type="line"/>
      <point x="21" y="188" type="line"/>
      <point x="32" y="188"/>
      <point x="53" y="189"/>
      <point x="68" y="195"/>
      <point x="77" y="210"/>
      <point x="77" y="225" type="qcurve" smooth="yes"/>
      <point x="77" y="676" type="line"/>
    </contour>
  </outline>
</glyph>
<glyph name="Otilde" format="2">
  <advance width="570"/>
  <unicode hex="00D5"/>
  <outline>
    <contour>
      <point x="386" y="859" type="line"/>
      <point x="389" y="859"/>
      <point x="392" y="859" type="qcurve" smooth="yes"/>
      <point x="401" y="859"/>
      <point x="420" y="869"/>
      <point x="428" y="877" type="qcurve" smooth="yes"/>
      <point x="438" y="887"/>
      <point x="445" y="900" type="qcurve"/>
      <point x="495" y="887" type="line"/>
      <point x="484" y="849"/>
      <point x="457" y="795"/>
      <point x="427" y="760"/>
      <point x="395" y="741"/>
      <point x="380" y="737" type="qcurve" smooth="yes"/>
      <point x="365" y="733"/>
      <point x="350" y="733" type="qcurve" smooth="yes"/>
      <point x="330" y="733"/>
      <point x="308" y="741" type="qcurve"/>
      <point x="179" y="777" type="line"/>
      <point x="176" y="777"/>
      <point x="173" y="777" type="qcurve" smooth="yes"/>
      <point x="164" y="777"/>
      <point x="145" y="766"/>
      <point x="137" y="758" type="qcurve" smooth="yes"/>
      <point x="127" y="747"/>
      <point x="119" y="734" type="qcurve"/>
      <point x="70" y="748" type="line"/>
      <point x="80" y="786"/>
      <point x="108" y="839"/>
      <point x="138" y="874"/>
      <point x="170" y="894"/>
      <point x="185" y="898" type="qcurve" smooth="yes"/>
      <point x="200" y="902"/>
      <point x="216" y="902" type="qcurve" smooth="yes"/>
      <point x="236" y="902"/>
      <point x="257" y="895" type="qcurve"/>
    </contour>
    <contour>
      <point x="549" y="0" type="line"/>
      <point x="23" y="0" type="line"/>
      <point x="23" y="676" type="line"/>
      <point x="549" y="676" type="line"/>
    </contour>
    <contour>
      <point x="361" y="188" type="line"/>
      <point x="361" y="488" type="line"/>
      <point x="211" y="488" type="line"/>
      <point x="211" y="188" type="line"/>
    </contour>
  </outline>
</glyph>
<glyph name="Odieresis" format="2">
  <advance width="570"/>
  <unicode hex="00D6"/>
  <outline>
    <contour>
      <point x="333" y="827" type="qcurve" smooth="yes"/>
      <point x="333" y="865"/>
      <point x="386" y="919"/>
      <point x="424" y="919" type="qcurve" smooth="yes"/>
      <point x="462" y="919"/>
      <point x="515" y="865"/>
      <point x="515" y="827" type="qcurve" smooth="yes"/>
      <point x="515" y="789"/>
      <point x="462" y="737"/>
      <point x="424" y="737" type="qcurve" smooth="yes"/>
      <point x="386" y="737"/>
      <point x="333" y="789"/>
    </contour>
    <contour>
      <point x="69" y="827" type="qcurve" smooth="yes"/>
      <point x="69" y="865"/>
      <point x="122" y="919"/>
      <point x="160" y="919" type="qcurve" smooth="yes"/>
      <point x="198" y="919"/>
      <point x="251" y="865"/>
      <point x="251" y="827" type="qcurve" smooth="yes"/>
      <point x="251" y="789"/>
      <point x="198" y="737"/>
      <point x="160" y="737" type="qcurve" smooth="yes"/>
      <point x="122" y="737"/>
      <point x="69" y="789"/>
    </contour>
    <contour>
      <point x="549" y="0" type="line"/>
      <point x="23" y="0" type="line"/>
      <point x="23" y="676" type="line"/>
      <point x="549" y="676" type="line"/>
    </contour>
    <contour>
      <point x="361" y="188" type="line"/>
      <point x="361" y="488" type="line"/>
      <point x="211" y="488" type="line"/>
      <point x="211" y="188" type="line"/>
    </contour>
  </outline>
</glyph>
<glyph name="Thorn" format="2">
  <advance width="617"/>
  <unicode hex="00DE"/>
  <outline>
    <contour>
      <point x="208" y="676" type="line"/>
      <point x="208" y="584" type="line"/>
      <point x="425" y="584" type="line" smooth="yes"/>
      <point x="462" y="584"/>
      <point x="527" y="556"/>
      <point x="575" y="508"/>
      <point x="603" y="443"/>
      <point x="603" y="406" type="qcurve" smooth="yes"/>
      <point x="603" y="275" type="line" smooth="yes"/>
      <point x="603" y="238"/>
      <point x="575" y="173"/>
      <point x="527" y="125"/>
      <point x="462" y="98"/>
      <point x="425" y="98" type="qcurve" smooth="yes"/>
      <point x="208" y="98" type="line"/>
      <point x="208" y="1" type="line"/>
      <point x="20" y="1" type="line"/>
      <point x="20" y="676" type="line"/>
    </contour>
    <contour>
      <point x="429" y="384" type="line" smooth="yes"/>
      <point x="429" y="390"/>
      <point x="427" y="398" type="qcurve"/>
      <point x="419" y="412"/>
      <point x="379" y="415"/>
      <point x="363" y="415" type="qcurve" smooth="yes"/>
      <point x="356" y="415"/>
      <point x="348" y="415" type="qcurve" smooth="yes"/>
      <point x="208" y="415" type="line"/>
      <point x="208" y="264" type="line"/>
      <point x="347" y="264" type="line" smooth="yes"/>
      <point x="354" y="264"/>
      <point x="360" y="264" type="qcurve" smooth="yes"/>
      <point x="377" y="264"/>
      <point x="416" y="268"/>
      <point x="426" y="278" type="qcurve"/>
      <point x="427" y="281"/>
      <point x="429" y="289"/>
      <point x="429" y="295" type="qcurve" smooth="yes"/>
    </contour>
  </outline>
</glyph>
<glyph name="germandbls" format="2">
  <advance width="718"/>
  <unicode hex="00DF"/>
  <outline>
    <contour>
      <point x="265" y="450" type="qcurve" smooth="yes"/>
      <point x="265" y="169" type="line" smooth="yes"/>
      <point x="265" y="134"/>
      <point x="238" y="73"/>
      <point x="192" y="27"/>
      <point x="131" y="0"/>
      <point x="96" y="0" type="qcurve" smooth="yes"/>
      <point x="21" y="0" type="line"/>
      <point x="21" y="188" type="line"/>
      <point x="32" y="188"/>
      <point x="53" y="189"/>
      <point x="68" y="195"/>
      <point x="77" y="210"/>
      <point x="77" y="225" type="qcurve" smooth="yes"/>
      <point x="77" y="506" type="line" smooth="yes"/>
      <point x="77" y="541"/>
      <point x="104" y="602"/>
      <point x="150" y="648"/>
      <point x="211" y="675"/>
      <point x="246" y="675" type="qcurve"/>
      <point x="693" y="676" type="line"/>
      <point x="693" y="488" type="line"/>
      <point x="636" y="488" type="line"/>
      <point x="636" y="431" type="line"/>
      <point x="693" y="431" type="line"/>
      <point x="693" y="244" type="line"/>
      <point x="636" y="244" type="line"/>
      <point x="636" y="194"/>
      <point x="597" y="105"/>
      <point x="531" y="39"/>
      <point x="442" y="0"/>
      <point x="392" y="0" type="qcurve" smooth="yes"/>
      <point x="306" y="0" type="line"/>
      <point x="306" y="187" type="line"/>
      <point x="392" y="187" type="line" smooth="yes"/>
      <point x="421" y="187"/>
      <point x="449" y="213"/>
      <point x="449" y="240" type="qcurve"/>
      <point x="449" y="242"/>
      <point x="449" y="244" type="qcurve"/>
      <point x="294" y="244" type="line"/>
      <point x="294" y="413" type="line"/>
      <point x="449" y="413" type="line"/>
      <point x="449" y="488" type="line"/>
      <point x="316" y="488" type="line"/>
      <point x="288" y="486"/>
      <point x="274" y="480"/>
      <point x="265" y="465"/>
    </contour>
  </outline>
</glyph>
<glyph name="ccedilla" format="2">
  <advance width="625"/>
  <unicode hex="00E7"/>
  <outline>
    <contour>
      <point x="601" y="432" type="line"/>
      <point x="413" y="432" type="line"/>
      <point x="413" y="489" type="line"/>
      <point x="263" y="489" type="line"/>
      <point x="263" y="357" type="line" smooth="yes"/>
      <point x="263" y="308"/>
      <point x="295" y="245"/>
      <point x="348" y="208"/>
      <point x="418" y="191"/>
      <point x="482" y="187"/>
      <point x="509" y="187" type="qcurve" smooth="yes"/>
      <point x="520" y="187"/>
      <point x="568" y="188"/>
      <point x="601" y="188" type="qcurve"/>
      <point x="601" y="0" type="line"/>
      <point x="432" y="0" type="line" smooth="yes"/>
      <point x="379" y="0"/>
      <point x="330" y="15" type="qcurve"/>
      <point x="322" y="-54" type="line"/>
      <point x="332" y="-56" type="line"/>
      <point x="348" y="-60"/>
      <point x="380" y="-72"/>
      <point x="393" y="-81" type="qcurve"/>
      <point x="404" y="-91"/>
      <point x="420" y="-117"/>
      <point x="420" y="-128" type="qcurve" smooth="yes"/>
      <point x="420" y="-147"/>
      <point x="383" y="-180"/>
      <point x="338" y="-188" type="qcurve"/>
      <point x="339" y="-188" type="line"/>
      <point x="329" y="-190"/>
      <point x="305" y="-192"/>
      <point x="293" y="-192" type="qcurve" smooth="yes"/>
      <point x="269" y="-192"/>
      <point x="226" y="-185"/>
      <point x="190" y="-176"/>
      <point x="163" y="-166"/>
      <point x="156" y="-163" type="qcurve"/>
      <point x="177" y="-119" type="line"/>
      <point x="233" y="-144"/>
      <point x="260" y="-144" type="qcurve" smooth="yes"/>
      <point x="277" y="-144"/>
      <point x="300" y="-132"/>
      <point x="300" y="-123" type="qcurve" smooth="yes"/>
      <point x="300" y="-115"/>
      <point x="282" y="-101"/>
      <point x="256" y="-91"/>
      <point x="228" y="-85"/>
      <point x="218" y="-84" type="qcurve"/>
      <point x="254" y="47" type="line"/>
      <point x="213" y="71"/>
      <point x="180" y="105" type="qcurve" smooth="yes"/>
      <point x="131" y="153"/>
      <point x="75" y="283"/>
      <point x="75" y="357" type="qcurve" smooth="yes"/>
      <point x="75" y="470" type="line"/>
      <point x="19" y="470" type="line"/>
      <point x="19" y="676" type="line"/>
      <point x="601" y="676" type="line"/>
    </contour>
  </outline>
</glyph>
<glyph name="edieresis" format="2">
  <advance width="620"/>
  <unicode hex="00EB"/>
  <outline>
    <contour>
      <point x="358" y="827" type="qcurve" smooth="yes"/>
      <point x="358" y="865"/>
      <point x="411" y="919"/>
      <point x="449" y="919" type="qcurve" smooth="yes"/>
      <point x="487" y="919"/>
      <point x="540" y="865"/>
      <point x="540" y="827" type="qcurve" smooth="yes"/>
      <point x="540" y="789"/>
      <point x="487" y="737"/>
      <point x="449" y="737" type="qcurve" smooth="yes"/>
      <point x="411" y="737"/>
      <point x="358" y="789"/>
    </contour>
    <contour>
      <point x="94" y="827" type="qcurve" smooth="yes"/>
      <point x="94" y="865"/>
      <point x="147" y="919"/>
      <point x="185" y="919" type="qcurve" smooth="yes"/>
      <point x="223" y="919"/>
      <point x="276" y="865"/>
      <point x="276" y="827" type="qcurve" smooth="yes"/>
      <point x="276" y="789"/>
      <point x="223" y="737"/>
      <point x="185" y="737" type="qcurve" smooth="yes"/>
      <point x="147" y="737"/>
      <point x="94" y="789"/>
    </contour>
    <contour>
      <point x="75" y="244" type="qcurve"/>
      <point x="19" y="244" type="line"/>
      <point x="19" y="431" type="line"/>
      <point x="75" y="431" type="line"/>
      <point x="75" y="488" type="line"/>
      <point x="19" y="488" type="line"/>
      <point x="19" y="675" type="line"/>
      <point x="601" y="675" type="line"/>
      <point x="601" y="488" type="line"/>
      <point x="263" y="488" type="line"/>
      <point x="263" y="413" type="line"/>
      <point x="488" y="413" type="line"/>
      <point x="488" y="244" type="line"/>
      <point x="263" y="244" type="line"/>
      <point x="263" y="243"/>
      <point x="263" y="242" type="qcurve"/>
      <point x="263" y="187"/>
      <point x="319" y="187" type="qcurve" smooth="yes"/>
      <point x="601" y="187" type="line"/>
      <point x="601" y="0" type="line"/>
      <point x="319" y="0" type="line" smooth="yes"/>
      <point x="269" y="0"/>
      <point x="180" y="39"/>
      <point x="114" y="105"/>
      <point x="75" y="194"/>
    </contour>
  </outline>
</glyph>
<glyph name="ntilde" format="2">
  <advance width="636"/>
  <unicode hex="00F1"/>
  <outline>
    <contour>
      <point x="426" y="859" type="line"/>
      <point x="429" y="859"/>
      <point x="432" y="859" type="qcurve" smooth="yes"/>
      <point x="441" y="859"/>
      <point x="460" y="869"/>
      <point x="468" y="877" type="qcurve" smooth="yes"/>
      <point x="478" y="887"/>
      <point x="485" y="900" type="qcurve"/>
      <point x="535" y="887" type="line"/>
      <point x="524" y="849"/>
      <point x="497" y="795"/>
      <point x="467" y="760"/>
      <point x="435" y="741"/>
      <point x="420" y="737" type="qcurve" smooth="yes"/>
      <point x="405" y="733"/>
      <point x="390" y="733" type="qcurve" smooth="yes"/>
      <point x="370" y="733"/>
      <point x="348" y="741" type="qcurve"/>
      <point x="219" y="777" type="line"/>
      <point x="216" y="777"/>
      <point x="213" y="777" type="qcurve" smooth="yes"/>
      <point x="204" y="777"/>
      <point x="185" y="766"/>
      <point x="177" y="758" type="qcurve" smooth="yes"/>
      <point x="167" y="747"/>
      <point x="159" y="734" type="qcurve"/>
      <point x="110" y="748" type="line"/>
      <point x="120" y="786"/>
      <point x="148" y="839"/>
      <point x="178" y="874"/>
      <point x="210" y="894"/>
      <point x="225" y="898" type="qcurve" smooth="yes"/>
      <point x="240" y="902"/>
      <point x="256" y="902" type="qcurve" smooth="yes"/>
      <point x="276" y="902"/>
      <point x="297" y="895" type="qcurve"/>
    </contour>
    <contour>
      <point x="619" y="188" type="qcurve"/>
      <point x="619" y="0" type="line"/>
      <point x="544" y="0" type="line" smooth="yes"/>
      <point x="509" y="0"/>
      <point x="448" y="27"/>
      <point x="402" y="73"/>
      <point x="375" y="134"/>
      <point x="375" y="169" type="qcurve" smooth="yes"/>
      <point x="375" y="488" type="line"/>
      <point x="310" y="481"/>
      <point x="242" y="445"/>
      <point x="210" y="385"/>
      <point x="206" y="299"/>
      <point x="206" y="244" type="qcurve" smooth="yes"/>
      <point x="206" y="0" type="line"/>
      <point x="18" y="0" type="line"/>
      <point x="18" y="676" type="line"/>
      <point x="206" y="676" type="line"/>
      <point x="206" y="640" type="line"/>
      <point x="251" y="660"/>
      <point x="338" y="676"/>
      <point x="387" y="676" type="qcurve" smooth="yes"/>
      <point x="563" y="676" type="line"/>
      <point x="563" y="225" type="line" smooth="yes"/>
      <point x="563" y="210"/>
      <point x="572" y="195"/>
      <point x="587" y="189"/>
      <point x="608" y="188"/>
    </contour>
  </outline>
</glyph>
<glyph name="oacute" format="2">
  <advance width="570"/>
  <unicode hex="00F3"/>
  <outline>
    <contour>
      <point x="361" y="188" type="line"/>
      <point x="361" y="488" type="line"/>
      <point x="211" y="488" type="line"/>
      <point x="211" y="188" type="line"/>
    </contour>
    <contour>
      <point x="549" y="0" type="line"/>
      <point x="23" y="0" type="line"/>
      <point x="23" y="676" type="line"/>
      <point x="549" y="676" type="line"/>
    </contour>
    <contour>
      <point x="426" y="824" type="line"/>
      <point x="216" y="730" type="line"/>
      <point x="155" y="814" type="line"/>
      <point x="330" y="969" type="line"/>
    </contour>
  </outline>
</glyph>
<glyph name="divide" format="2">
  <advance width="459"/>
  <unicode hex="00F7"/>
  <outline>
    <contour>
      <point x="140" y="527" type="qcurve" smooth="yes"/>
      <point x="140" y="546"/>
      <point x="155" y="581"/>
      <point x="180" y="606"/>
      <point x="214" y="621"/>
      <point x="234" y="621" type="qcurve" smooth="yes"/>
      <point x="253" y="621"/>
      <point x="288" y="606"/>
      <point x="313" y="581"/>
      <point x="328" y="546"/>
      <point x="328" y="527" type="qcurve" smooth="yes"/>
      <point x="328" y="507"/>
      <point x="313" y="473"/>
      <point x="288" y="448"/>
      <point x="253" y="433"/>
      <point x="234" y="433" type="qcurve" smooth="yes"/>
      <point x="214" y="433"/>
      <point x="180" y="448"/>
      <point x="155" y="473"/>
      <point x="140" y="507"/>
    </contour>
    <contour>
      <point x="443" y="405" type="line"/>
      <point x="443" y="251" type="line"/>
      <point x="15" y="251" type="line"/>
      <point x="15" y="405" type="line"/>
    </contour>
    <contour>
      <point x="141" y="125" type="qcurve" smooth="yes"/>
      <point x="141" y="144"/>
      <point x="156" y="179"/>
      <point x="181" y="204"/>
      <point x="215" y="219"/>
      <point x="235" y="219" type="qcurve" smooth="yes"/>
      <point x="254" y="219"/>
      <point x="289" y="204"/>
      <point x="314" y="179"/>
      <point x="329" y="144"/>
      <point x="329" y="125" type="qcurve" smooth="yes"/>
      <point x="329" y="105"/>
      <point x="314" y="71"/>
      <point x="289" y="46"/>
      <point x="254" y="31"/>
      <point x="235" y="31" type="qcurve" smooth="yes"/>
      <point x="215" y="31"/>
      <point x="181" y="46"/>
      <point x="156" y="71"/>
      <point x="141" y="105"/>
    </contour>
  </outline>
</glyph>
<glyph name="udieresis" format="2">
  <advance width="622"/>
  <unicode hex="00FC"/>
  <outline>
    <contour>
      <point x="359" y="827" type="qcurve" smooth="yes"/>
      <point x="359" y="865"/>
      <point x="412" y="919"/>
      <point x="450" y="919" type="qcurve" smooth="yes"/>
      <point x="488" y="919"/>
      <point x="541" y="865"/>
      <point x="541" y="827" type="qcurve" smooth="yes"/>
      <point x="541" y="789"/>
      <point x="488" y="737"/>
      <point x="450" y="737" type="qcurve" smooth="yes"/>
      <point x="412" y="737"/>
      <point x="359" y="789"/>
    </contour>
    <contour>
      <point x="95" y="827" type="qcurve" smooth="yes"/>
      <point x="95" y="865"/>
      <point x="148" y="919"/>
      <point x="186" y="919" type="qcurve" smooth="yes"/>
      <point x="224" y="919"/>
      <point x="277" y="865"/>
      <point x="277" y="827" type="qcurve" smooth="yes"/>
      <point x="277" y="789"/>
      <point x="224" y="737"/>
      <point x="186" y="737" type="qcurve" smooth="yes"/>
      <point x="148" y="737"/>
      <point x="95" y="789"/>
    </contour>
    <contour>
      <point x="601" y="0" type="line"/>
      <point x="432" y="0" type="line" smooth="yes"/>
      <point x="358" y="0"/>
      <point x="228" y="56"/>
      <point x="131" y="153"/>
      <point x="75" y="283"/>
      <point x="75" y="357" type="qcurve" smooth="yes"/>
      <point x="75" y="469" type="line"/>
      <point x="19" y="469" type="line"/>
      <point x="19" y="676" type="line"/>
      <point x="263" y="676" type="line"/>
      <point x="263" y="485" type="line"/>
      <point x="263" y="484"/>
      <point x="263" y="482" type="qcurve"/>
      <point x="263" y="463" type="line"/>
      <point x="263" y="461"/>
      <point x="263" y="460" type="qcurve"/>
      <point x="263" y="445" type="line"/>
      <point x="263" y="444"/>
      <point x="263" y="442" type="qcurve"/>
      <point x="263" y="393" type="line" smooth="yes"/>
      <point x="263" y="343"/>
      <point x="288" y="257"/>
      <point x="350" y="196"/>
      <point x="413" y="189" type="qcurve"/>
      <point x="413" y="676" type="line"/>
      <point x="601" y="676" type="line"/>
    </contour>
  </outline>
</glyph>
<glyph name="Ebreve" format="2">
  <advance width="620"/>
  <unicode hex="0114"/>
  <outline>
    <contour>
      <point x="480" y="942" type="line"/>
      <point x="477" y="907"/>
      <point x="450" y="839"/>
      <point x="403" y="785"/>
      <point x="340" y="750"/>
      <point x="301" y="749" type="qcurve"/>
      <point x="262" y="750"/>
      <point x="197" y="782"/>
      <point x="151" y="834"/>
      <point x="122" y="903"/>
      <point x="119" y="941" type="qcurve"/>
      <point x="207" y="941" type="line"/>
      <point x="221" y="913"/>
      <point x="265" y="868"/>
      <point x="300" y="868" type="qcurve" smooth="yes"/>
      <point x="318" y="868"/>
      <point x="344" y="878"/>
      <point x="365" y="897"/>
      <point x="383" y="924"/>
      <point x="393" y="941" type="qcurve"/>
    </contour>
    <contour>
      <point x="75" y="244" type="qcurve"/>
      <point x="19" y="244" type="line"/>
      <point x="19" y="431" type="line"/>
      <point x="75" y="431" type="line"/>
      <point x="75" y="488" type="line"/>
      <point x="19" y="488" type="line"/>
      <point x="19" y="675" type="line"/>
      <point x="601" y="675" type="line"/>
      <point x="601" y="488" type="line"/>
      <point x="263" y="488" type="line"/>
      <point x="263" y="413" type="line"/>
      <point x="488" y="413" type="line"/>
      <point x="488" y="244" type="line"/>
      <point x="263" y="244" type="line"/>
      <point x="263" y="243"/>
      <point x="263" y="242" type="qcurve"/>
      <point x="263" y="187"/>
      <point x="319" y="187" type="qcurve" smooth="yes"/>
      <point x="601" y="187" type="line"/>
      <point x="601" y="0" type="line"/>
      <point x="319" y="0" type="line" smooth="yes"/>
      <point x="269" y="0"/>
      <point x="180" y="39"/>
      <point x="114" y="105"/>
      <point x="75" y="194"/>
    </contour>
  </outline>
</glyph>
<glyph name="gbreve" format="2">
  <advance width="620"/>
  <unicode hex="011F"/>
  <outline>
    <contour>
      <point x="498" y="942" type="line"/>
      <point x="495" y="907"/>
      <point x="468" y="839"/>
      <point x="421" y="785"/>
      <point x="358" y="750"/>
      <point x="319" y="749" type="qcurve"/>
      <point x="280" y="750"/>
      <point x="215" y="782"/>
      <point x="169" y="834"/>
      <point x="140" y="903"/>
      <point x="137" y="941" type="qcurve"/>
      <point x="225" y="941" type="line"/>
      <point x="239" y="913"/>
      <point x="283" y="868"/>
      <point x="318" y="868" type="qcurve" smooth="yes"/>
      <point x="336" y="868"/>
      <point x="362" y="878"/>
      <point x="383" y="897"/>
      <point x="401" y="924"/>
      <point x="411" y="941" type="qcurve"/>
    </contour>
    <contour>
      <point x="601" y="413" type="line"/>
      <point x="601" y="0" type="line"/>
      <point x="432" y="0" type="line" smooth="yes"/>
      <point x="358" y="0"/>
      <point x="228" y="56"/>
      <point x="131" y="153"/>
      <point x="75" y="283"/>
      <point x="75" y="357" type="qcurve" smooth="yes"/>
      <point x="75" y="470" type="line"/>
      <point x="19" y="470" type="line"/>
      <point x="19" y="676" type="line"/>
      <point x="601" y="676" type="line"/>
      <point x="601" y="451" type="line"/>
      <point x="413" y="451" type="line"/>
      <point x="413" y="488" type="line"/>
      <point x="263" y="488" type="line"/>
      <point x="263" y="357" type="line" smooth="yes"/>
      <point x="263" y="325"/>
      <point x="286" y="267"/>
      <point x="326" y="222"/>
      <point x="381" y="193"/>
      <point x="413" y="189" type="qcurve"/>
      <point x="413" y="244" type="line"/>
      <point x="357" y="244" type="line"/>
      <point x="357" y="413" type="line"/>
    </contour>
  </outline>
</glyph>
<glyph name="Itilde" format="2">
  <advance width="285"/>
  <unicode hex="0128"/>
  <outline>
    <contour>
      <point x="295" y="859" type="line"/>
      <point x="298" y="859"/>
      <point x="301" y="859" type="qcurve" smooth="yes"/>
      <point x="310" y="859"/>
      <point x="329" y="869"/>
      <point x="337" y="877" type="qcurve" smooth="yes"/>
      <point x="347" y="887"/>
      <point x="354" y="900" type="qcurve"/>
      <point x="404" y="887" type="line"/>
      <point x="393" y="849"/>
      <point x="366" y="795"/>
      <point x="336" y="760"/>
      <point x="304" y="741"/>
      <point x="289" y="737" type="qcurve" smooth="yes"/>
      <point x="274" y="733"/>
      <point x="259" y="733" type="qcurve" smooth="yes"/>
      <point x="239" y="733"/>
      <point x="217" y="741" type="qcurve"/>
      <point x="88" y="777" type="line"/>
      <point x="85" y="777"/>
      <point x="82" y="777" type="qcurve" smooth="yes"/>
      <point x="73" y="777"/>
      <point x="54" y="766"/>
      <point x="46" y="758" type="qcurve" smooth="yes"/>
      <point x="36" y="747"/>
      <point x="28" y="734" type="qcurve"/>
      <point x="-21" y="748" type="line"/>
      <point x="-11" y="786"/>
      <point x="17" y="839"/>
      <point x="47" y="874"/>
      <point x="79" y="894"/>
      <point x="94" y="898" type="qcurve" smooth="yes"/>
      <point x="109" y="902"/>
      <point x="125" y="902" type="qcurve" smooth="yes"/>
      <point x="145" y="902"/>
      <point x="166" y="895" type="qcurve"/>
    </contour>
    <contour>
      <point x="265" y="676" type="line"/>
      <point x="265" y="169" type="line" smooth="yes"/>
      <point x="265" y="134"/>
      <point x="238" y="73"/>
      <point x="192" y="27"/>
      <point x="131" y="0"/>
      <point x="96" y="0" type="qcurve" smooth="yes"/>
      <point x="21" y="0" type="line"/>
      <point x="21" y="188" type="line"/>
      <point x="32" y="188"/>
      <point x="53" y="189"/>
      <point x="68" y="195"/>
      <point x="77" y="210"/>
      <point x="77" y="225" type="qcurve" smooth="yes"/>
      <point x="77" y="676" type="line"/>
    </contour>
  </outline>
</glyph>
<glyph name="obreve" format="2">
  <advance width="570"/>
  <unicode hex="014F"/>
  <outline>
    <contour>
      <point x="473" y="942" type="line"/>
      <point x="470" y="907"/>
      <point x="443" y="839"/>
      <point x="396" y="785"/>
      <point x="333" y="750"/>
      <point x="294" y="749" type="qcurve"/>
      <point x="255" y="750"/>
      <point x="190" y="782"/>
      <point x="144" y="834"/>
      <point x="115" y="903"/>
      <point x="112" y="941" type="qcurve"/>
      <point x="200" y="941" type="line"/>
      <point x="214" y="913"/>
      <point x="258" y="868"/>
      <point x="293" y="868" type="qcurve" smooth="yes"/>
      <point x="311" y="868"/>
      <point x="337" y="878"/>
      <point x="358" y="897"/>
      <point x="376" y="924"/>
      <point x="386" y="941" type="qcurve"/>
    </contour>
    <contour>
      <point x="549" y="0" type="line"/>
      <point x="23" y="0" type="line"/>
      <point x="23" y="676" type="line"/>
      <point x="549" y="676" type="line"/>
    </contour>
    <contour>
      <point x="361" y="188" type="line"/>
      <point x="361" y="488" type="line"/>
      <point x="211" y="488" type="line"/>
      <point x="211" y="188" type="line"/>
    </contour>
  </outline>
</glyph>
<glyph name="ohungarumlaut" format="2">
  <advance width="570"/>
  <unicode hex="0151"/>
  <outline>
    <contour>
      <point x="278" y="824" type="line"/>
      <point x="68" y="730" type="line"/>
      <point x="7" y="814" type="line"/>
      <point x="182" y="969" type="line"/>
    </contour>
    <contour>
      <point x="567" y="824" type="line"/>
      <point x="357" y="730" type="line"/>
      <point x="296" y="814" type="line"/>
      <point x="471" y="969" type="line"/>
    </contour>
    <contour>
      <point x="361" y="188" type="line"/>
      <point x="361" y="488" type="line"/>
      <point x="211" y="488" type="line"/>
      <point x="211" y="188" type="line"/>
    </contour>
    <contour>
      <point x="549" y="0" type="line"/>
      <point x="23" y="0" type="line"/>
      <point x="23" y="676" type="line"/>
      <point x="549" y="676" type="line"/>
    </contour>
  </outline>
</glyph>
<glyph name="Scedilla" format="2">
  <advance width="561"/>
  <unicode hex="015E"/>
  <outline>
    <contour>
      <point x="20" y="244" type="line"/>
      <point x="20" y="432" type="line" smooth="yes"/>
      <point x="20" y="482"/>
      <point x="59" y="571"/>
      <point x="125" y="637"/>
      <point x="214" y="676"/>
      <point x="264" y="676" type="qcurve" smooth="yes"/>
      <point x="546" y="676" type="line"/>
      <point x="546" y="489" type="line"/>
      <point x="358" y="489" type="line" smooth="yes"/>
      <point x="326" y="489"/>
      <point x="289" y="492"/>
      <point x="280" y="492" type="qcurve" smooth="yes"/>
      <point x="264" y="492"/>
      <point x="231" y="485"/>
      <point x="208" y="452"/>
      <point x="208" y="413" type="qcurve"/>
      <point x="546" y="413" type="line"/>
      <point x="546" y="244" type="line" smooth="yes"/>
      <point x="546" y="194"/>
      <point x="507" y="105"/>
      <point x="441" y="39"/>
      <point x="397" y="20" type="qcurve" smooth="yes"/>
      <point x="364" y="5"/>
      <point x="329" y="1" type="qcurve"/>
      <point x="322" y="-54" type="line"/>
      <point x="332" y="-56" type="line"/>
      <point x="348" y="-60"/>
      <point x="380" y="-72"/>
      <point x="393" y="-81" type="qcurve"/>
      <point x="404" y="-91"/>
      <point x="420" y="-117"/>
      <point x="420" y="-128" type="qcurve" smooth="yes"/>
      <point x="420" y="-147"/>
      <point x="383" y="-180"/>
      <point x="338" y="-188" type="qcurve"/>
      <point x="339" y="-188" type="line"/>
      <point x="329" y="-190"/>
      <point x="305" y="-192"/>
      <point x="293" y="-192" type="qcurve" smooth="yes"/>
      <point x="269" y="-192"/>
      <point x="226" y="-185"/>
      <point x="190" y="-176"/>
      <point x="163" y="-166"/>
      <point x="156" y="-163" type="qcurve"/>
      <point x="177" y="-119" type="line"/>
      <point x="233" y="-144"/>
      <point x="260" y="-144" type="qcurve" smooth="yes"/>
      <point x="277" y="-144"/>
      <point x="300" y="-132"/>
      <point x="300" y="-123" type="qcurve" smooth="yes"/>
      <point x="300" y="-115"/>
      <point x="282" y="-101"/>
      <point x="256" y="-91"/>
      <point x="228" y="-85"/>
      <point x="218" y="-84" type="qcurve"/>
      <point x="241" y="0" type="line"/>
      <point x="20" y="0" type="line"/>
      <point x="20" y="188" type="line"/>
      <point x="264" y="188" type="line" smooth="yes"/>
      <point x="281" y="188"/>
      <point x="300" y="187"/>
      <point x="301" y="187" type="qcurve"/>
      <point x="316" y="187"/>
      <point x="342" y="196"/>
      <point x="358" y="220"/>
      <point x="358" y="244" type="qcurve"/>
    </contour>
  </outline>
</glyph>
<glyph name="scedilla" format="2">
  <advance width="561"/>
  <unicode hex="015F"/>
  <outline>
    <contour>
      <point x="8" y="241" type="line"/>
      <point x="8" y="432" type="line" smooth="yes"/>
      <point x="8" y="483"/>
      <point x="49" y="572"/>
      <point x="118" y="640"/>
      <point x="211" y="679"/>
      <point x="264" y="679" type="qcurve" smooth="yes"/>
      <point x="558" y="679" type="line"/>
      <point x="558" y="486" type="line"/>
      <point x="358" y="486" type="line" smooth="yes"/>
      <point x="346" y="486"/>
      <point x="324" y="487"/>
      <point x="313" y="488" type="qcurve" smooth="yes"/>
      <point x="304" y="489"/>
      <point x="296" y="489" type="qcurve" smooth="yes"/>
      <point x="293" y="489" type="line"/>
      <point x="293" y="489"/>
      <point x="292" y="489" type="qcurve"/>
      <point x="291" y="489"/>
      <point x="290" y="489" type="qcurve"/>
      <point x="289" y="489" type="line"/>
      <point x="288" y="489"/>
      <point x="288" y="489" type="qcurve"/>
      <point x="280" y="489" type="line" smooth="yes"/>
      <point x="266" y="489"/>
      <point x="244" y="484"/>
      <point x="229" y="468"/>
      <point x="220" y="440"/>
      <point x="220" y="416" type="qcurve"/>
      <point x="558" y="416" type="line"/>
      <point x="558" y="244" type="line" smooth="yes"/>
      <point x="558" y="193"/>
      <point x="517" y="104"/>
      <point x="448" y="36"/>
      <point x="401" y="17" type="qcurve" smooth="yes"/>
      <point x="366" y="2"/>
      <point x="328" y="-2" type="qcurve"/>
      <point x="322" y="-54" type="line"/>
      <point x="332" y="-56" type="line"/>
      <point x="348" y="-60"/>
      <point x="380" y="-72"/>
      <point x="393" y="-81" type="qcurve"/>
      <point x="404" y="-91"/>
      <point x="420" y="-117"/>
      <point x="420" y="-128" type="qcurve" smooth="yes"/>
      <point x="420" y="-147"/>
      <point x="383" y="-180"/>
      <point x="338" y="-188" type="qcurve"/>
      <point x="339" y="-188" type="line"/>
      <point x="329" y="-190"/>
      <point x="305" y="-192"/>
      <point x="293" y="-192" type="qcurve" smooth="yes"/>
      <point x="269" y="-192"/>
      <point x="226" y="-185"/>
      <point x="190" y="-176"/>
      <point x="163" y="-166"/>
      <point x="156" y="-163" type="qcurve"/>
      <point x="177" y="-119" type="line"/>
      <point x="233" y="-144"/>
      <point x="260" y="-144" type="qcurve" smooth="yes"/>
      <point x="277" y="-144"/>
      <point x="300" y="-132"/>
      <point x="300" y="-123" type="qcurve" smooth="yes"/>
      <point x="300" y="-115"/>
      <point x="282" y="-101"/>
      <point x="256" y="-91"/>
      <point x="228" y="-85"/>
      <point x="218" y="-84" type="qcurve"/>
      <point x="241" y="-3" type="line"/>
      <point x="8" y="-3" type="line"/>
      <point x="8" y="191" type="line"/>
      <point x="281" y="191" type="line"/>
      <point x="283" y="191"/>
      <point x="284" y="191" type="qcurve"/>
      <point x="285" y="191" type="line"/>
      <point x="286" y="191"/>
      <point x="287" y="191" type="qcurve"/>
      <point x="289" y="191" type="line"/>
      <point x="290" y="191"/>
      <point x="290" y="191" type="qcurve"/>
      <point x="291" y="191" type="line"/>
      <point x="291" y="191"/>
      <point x="292" y="191" type="qcurve"/>
      <point x="304" y="191" type="line" smooth="yes"/>
      <point x="316" y="191"/>
      <point x="334" y="200"/>
      <point x="346" y="221"/>
      <point x="346" y="241" type="qcurve"/>
    </contour>
  </outline>
</glyph>
<glyph name="uni0163" format="2">
  <advance width="561"/>
  <unicode hex="0163"/>
  <outline>
    <contour>
      <point x="375" y="226" type="line" smooth="yes"/>
      <point x="375" y="211"/>
      <point x="384" y="195"/>
      <point x="399" y="188"/>
      <point x="409" y="188" type="qcurve"/>
      <point x="411" y="188" type="line"/>
      <point x="412" y="188"/>
      <point x="413" y="188" type="qcurve"/>
      <point x="414" y="188"/>
      <point x="415" y="188" type="qcurve"/>
      <point x="416" y="188"/>
      <point x="416" y="188" type="qcurve"/>
      <point x="417" y="188" type="line"/>
      <point x="418" y="188"/>
      <point x="418" y="188" type="qcurve"/>
      <point x="419" y="188" type="line"/>
      <point x="419" y="188"/>
      <point x="419" y="188" type="qcurve"/>
      <point x="427" y="188" type="line"/>
      <point x="428" y="188"/>
      <point x="428" y="188" type="qcurve"/>
      <point x="431" y="188" type="line"/>
      <point x="431" y="0" type="line"/>
      <point x="356" y="0" type="line" smooth="yes"/>
      <point x="351" y="0"/>
      <point x="346" y="0" type="qcurve"/>
      <point x="340" y="-54" type="line"/>
      <point x="350" y="-56" type="line"/>
      <point x="366" y="-60"/>
      <point x="398" y="-72"/>
      <point x="411" y="-81" type="qcurve"/>
      <point x="422" y="-91"/>
      <point x="438" y="-117"/>
      <point x="438" y="-128" type="qcurve" smooth="yes"/>
      <point x="438" y="-147"/>
      <point x="401" y="-180"/>
      <point x="356" y="-188" type="qcurve"/>
      <point x="357" y="-188" type="line"/>
      <point x="347" y="-190"/>
      <point x="323" y="-192"/>
      <point x="311" y="-192" type="qcurve" smooth="yes"/>
      <point x="287" y="-192"/>
      <point x="244" y="-185"/>
      <point x="208" y="-176"/>
      <point x="181" y="-166"/>
      <point x="174" y="-163" type="qcurve"/>
      <point x="170" y="-157" type="line"/>
      <point x="179" y="-142" type="line"/>
      <point x="195" y="-119" type="line"/>
      <point x="251" y="-144"/>
      <point x="278" y="-144" type="qcurve" smooth="yes"/>
      <point x="295" y="-144"/>
      <point x="318" y="-132"/>
      <point x="318" y="-123" type="qcurve" smooth="yes"/>
      <point x="318" y="-115"/>
      <point x="300" y="-101"/>
      <point x="274" y="-91"/>
      <point x="246" y="-85"/>
      <point x="236" y="-84" type="qcurve"/>
      <point x="267" y="26" type="line"/>
      <point x="251" y="36"/>
      <point x="237" y="50" type="qcurve" smooth="yes"/>
      <point x="214" y="73"/>
      <point x="187" y="134"/>
      <point x="187" y="169" type="qcurve" smooth="yes"/>
      <point x="187" y="488" type="line"/>
      <point x="18" y="488" type="line"/>
      <point x="18" y="676" type="line"/>
      <point x="543" y="676" type="line"/>
      <point x="543" y="488" type="line"/>
      <point x="375" y="488" type="line"/>
    </contour>
  </outline>
</glyph>
<glyph name="Utilde" format="2">
  <advance width="622"/>
  <unicode hex="0168"/>
  <outline>
    <contour>
      <point x="433" y="859" type="line"/>
      <point x="436" y="859"/>
      <point x="439" y="859" type="qcurve" smooth="yes"/>
      <point x="448" y="859"/>
      <point x="467" y="869"/>
      <point x="475" y="877" type="qcurve" smooth="yes"/>
      <point x="485" y="887"/>
      <point x="492" y="900" type="qcurve"/>
      <point x="542" y="887" type="line"/>
      <point x="531" y="849"/>
      <point x="504" y="795"/>
      <point x="474" y="760"/>
      <point x="442" y="741"/>
      <point x="427" y="737" type="qcurve" smooth="yes"/>
      <point x="412" y="733"/>
      <point x="397" y="733" type="qcurve" smooth="yes"/>
      <point x="377" y="733"/>
      <point x="355" y="741" type="qcurve"/>
      <point x="226" y="777" type="line"/>
      <point x="223" y="777"/>
      <point x="220" y="777" type="qcurve" smooth="yes"/>
      <point x="211" y="777"/>
      <point x="192" y="766"/>
      <point x="184" y="758" type="qcurve" smooth="yes"/>
      <point x="174" y="747"/>
      <point x="166" y="734" type="qcurve"/>
      <point x="117" y="748" type="line"/>
      <point x="127" y="786"/>
      <point x="155" y="839"/>
      <point x="185" y="874"/>
      <point x="217" y="894"/>
      <point x="232" y="898" type="qcurve" smooth="yes"/>
      <point x="247" y="902"/>
      <point x="263" y="902" type="qcurve" smooth="yes"/>
      <point x="283" y="902"/>
      <point x="304" y="895" type="qcurve"/>
    </contour>
    <contour>
      <point x="601" y="0" type="line"/>
      <point x="432" y="0" type="line" smooth="yes"/>
      <point x="358" y="0"/>
      <point x="228" y="56"/>
      <point x="131" y="153"/>
      <point x="75" y="283"/>
      <point x="75" y="357" type="qcurve" smooth="yes"/>
      <point x="75" y="469" type="line"/>
      <point x="19" y="469" type="line"/>
      <point x="19" y="676" type="line"/>
      <point x="263" y="676" type="line"/>
      <point x="263" y="485" type="line"/>
      <point x="263" y="484"/>
      <point x="263" y="482" type="qcurve"/>
      <point x="263" y="463" type="line"/>
      <point x="263" y="461"/>
      <point x="263" y="460" type="qcurve"/>
      <point x="263" y="445" type="line"/>
      <point x="263" y="444"/>
      <point x="263" y="442" type="qcurve"/>
      <point x="263" y="393" type="line" smooth="yes"/>
      <point x="263" y="343"/>
      <point x="288" y="257"/>
      <point x="350" y="196"/>
      <point x="413" y="189" type="qcurve"/>
      <point x="413" y="676" type="line"/>
      <point x="601" y="676" type="line"/>
    </contour>
  </outline>
</glyph>
<glyph name="uring" format="2">
  <advance width="622"/>
  <unicode hex="016F"/>
  <outline>
    <contour>
      <point x="512" y="942" type="line"/>
      <point x="509" y="907"/>
      <point x="482" y="839"/>
      <point x="435" y="785"/>
      <point x="372" y="750"/>
      <point x="333" y="749" type="qcurve"/>
      <point x="294" y="750"/>
      <point x="229" y="782"/>
      <point x="183" y="834"/>
      <point x="154" y="903"/>
      <point x="151" y="941" type="qcurve"/>
      <point x="239" y="941" type="line"/>
      <point x="253" y="913"/>
      <point x="297" y="868"/>
      <point x="332" y="868" type="qcurve" smooth="yes"/>
      <point x="350" y="868"/>
      <point x="376" y="878"/>
      <point x="397" y="897"/>
      <point x="415" y="924"/>
      <point x="425" y="941" type="qcurve"/>
    </contour>
    <contour>
      <point x="601" y="0" type="line"/>
      <point x="432" y="0" type="line" smooth="yes"/>
      <point x="358" y="0"/>
      <point x="228" y="56"/>
      <point x="131" y="153"/>
      <point x="75" y="283"/>
      <point x="75" y="357" type="qcurve" smooth="yes"/>
      <point x="75" y="469" type="line"/>
      <point x="19" y="469" type="line"/>
      <point x="19" y="676" type="line"/>
      <point x="263" y="676" type="line"/>
      <point x="263" y="485" type="line"/>
      <point x="263" y="484"/>
      <point x="263" y="482" type="qcurve"/>
      <point x="263" y="463" type="line"/>
      <point x="263" y="461"/>
      <point x="263" y="460" type="qcurve"/>
      <point x="263" y="445" type="line"/>
      <point x="263" y="444"/>
      <point x="263" y="442" type="qcurve"/>
      <point x="263" y="393" type="line" smooth="yes"/>
      <point x="263" y="343"/>
      <point x="288" y="257"/>
      <point x="350" y="196"/>
      <point x="413" y="189" type="qcurve"/>
      <point x="413" y="676" type="line"/>
      <point x="601" y="676" type="line"/>
    </contour>
  </outline>
</glyph>
<glyph name="Ydieresis" format="2">
  <advance width="617"/>
  <unicode hex="0178"/>
  <outline>
    <contour>
      <point x="333" y="827" type="qcurve" smooth="yes"/>
      <point x="333" y="865"/>
      <point x="386" y="919"/>
      <point x="424" y="919" type="qcurve" smooth="yes"/>
      <point x="462" y="919"/>
      <point x="515" y="865"/>
      <point x="515" y="827" type="qcurve" smooth="yes"/>
      <point x="515" y="789"/>
      <point x="462" y="737"/>
      <point x="424" y="737" type="qcurve" smooth="yes"/>
      <point x="386" y="737"/>
      <point x="333" y="789"/>
    </contour>
    <contour>
      <point x="69" y="827" type="qcurve" smooth="yes"/>
      <point x="69" y="865"/>
      <point x="122" y="919"/>
      <point x="160" y="919" type="qcurve" smooth="yes"/>
      <point x="198" y="919"/>
      <point x="251" y="865"/>
      <point x="251" y="827" type="qcurve" smooth="yes"/>
      <point x="251" y="789"/>
      <point x="198" y="737"/>
      <point x="160" y="737" type="qcurve" smooth="yes"/>
      <point x="122" y="737"/>
      <point x="69" y="789"/>
    </contour>
    <contour>
      <point x="600" y="413" type="line"/>
      <point x="600" y="244" type="line"/>
      <point x="544" y="244" type="line"/>
      <point x="544" y="194"/>
      <point x="505" y="105"/>
      <point x="439" y="39"/>
      <point x="350" y="0"/>
      <point x="300" y="0" type="qcurve" smooth="yes"/>
      <point x="131" y="0" type="line"/>
      <point x="131" y="188" type="line"/>
      <point x="300" y="188" type="line" smooth="yes"/>
      <point x="356" y="188"/>
      <point x="356" y="242" type="qcurve"/>
      <point x="356" y="243"/>
      <point x="356" y="244" type="qcurve"/>
      <point x="329" y="244"/>
      <point x="258" y="239"/>
      <point x="183" y="239"/>
      <point x="110" y="249"/>
      <point x="53" y="277"/>
      <point x="18" y="328"/>
      <point x="18" y="370" type="qcurve" smooth="yes"/>
      <point x="18" y="676" type="line"/>
      <point x="206" y="676" type="line"/>
      <point x="206" y="413" type="line"/>
      <point x="356" y="413" type="line"/>
      <point x="356" y="676" type="line"/>
      <point x="544" y="676" type="line"/>
      <point x="544" y="413" type="line"/>
    </contour>
  </outline>
</glyph>
<glyph name="uni02C9" format="2">
  <advance width="422"/>
  <unicode hex="02C9"/>
  <outline>
    <contour>
      <point x="399" y="900" type="line"/>
      <point x="399" y="746" type="line"/>
      <point x="20" y="746" type="line"/>
      <point x="20" y="900" type="line"/>
    </contour>
  </outline>
</glyph>
<glyph name="breve" format="2">
  <advance width="402"/>
  <unicode hex="02D8"/>
  <outline>
    <contour>
      <point x="382" y="942" type="line"/>
      <point x="379" y="907"/>
      <point x="352" y="839"/>
      <point x="305" y="785"/>
      <point x="242" y="750"/>
      <point x="203" y="749" type="qcurve"/>
      <point x="164" y="750"/>
      <point x="99" y="782"/>
      <point x="53" y="834"/>
      <point x="24" y="903"/>
      <point x="21" y="941" type="qcurve"/>
      <point x="109" y="941" type="line"/>
      <point x="123" y="913"/>
      <point x="167" y="868"/>
      <point x="202" y="868" type="qcurve" smooth="yes"/>
      <point x="220" y="868"/>
      <point x="246" y="878"/>
      <point x="267" y="897"/>
      <point x="285" y="924"/>
      <point x="295" y="941" type="qcurve"/>
    </contour>
  </outline>
</glyph>
<glyph name="tilde" format="2">
  <advance width="481"/>
  <unicode hex="02DC"/>
  <outline>
    <contour>
      <point x="348" y="859" type="line"/>
      <point x="351" y="859"/>
      <point x="354" y="859" type="qcurve" smooth="yes"/>
      <point x="363" y="859"/>
      <point x="382" y="869"/>
      <point x="390" y="877" type="qcurve" smooth="yes"/>
      <point x="400" y="887"/>
      <point x="407" y="900" type="qcurve"/>
      <point x="457" y="887" type="line"/>
      <point x="446" y="849"/>
      <point x="419" y="795"/>
      <point x="389" y="760"/>
      <point x="357" y="741"/>
      <point x="342" y="737" type="qcurve" smooth="yes"/>
      <point x="327" y="733"/>
      <point x="312" y="733" type="qcurve" smooth="yes"/>
      <point x="292" y="733"/>
      <point x="270" y="741" type="qcurve"/>
      <point x="141" y="777" type="line"/>
      <point x="138" y="777"/>
      <point x="135" y="777" type="qcurve" smooth="yes"/>
      <point x="126" y="777"/>
      <point x="107" y="766"/>
      <point x="99" y="758" type="qcurve" smooth="yes"/>
      <point x="89" y="747"/>
      <point x="81" y="734" type="qcurve"/>
      <point x="32" y="748" type="line"/>
      <point x="42" y="786"/>
      <point x="70" y="839"/>
      <point x="100" y="874"/>
      <point x="132" y="894"/>
      <point x="147" y="898" type="qcurve" smooth="yes"/>
      <point x="162" y="902"/>
      <point x="178" y="902" type="qcurve" smooth="yes"/>
      <point x="198" y="902"/>
      <point x="219" y="895" type="qcurve"/>
    </contour>
  </outline>
</glyph>
<glyph name="hungarumlaut" format="2">
  <advance width="670"/>
  <unicode hex="02DD"/>
  <outline>
    <contour>
      <point x="311" y="869" type="line"/>
      <point x="89" y="745" type="line"/>
      <point x="20" y="839" type="line"/>
      <point x="206" y="1004" type="line"/>
    </contour>
    <contour>
      <point x="646" y="869" type="line"/>
      <point x="424" y="745" type="line"/>
      <point x="355" y="839" type="line"/>
      <point x="541" y="1004" type="line"/>
    </contour>
  </outline>
</glyph>
<glyph name="uni0304" format="2">
  <advance width="398"/>
  <unicode hex="0304"/>
  <outline>
    <contour>
      <point x="389" y="900" type="line"/>
      <point x="389" y="746" type="line"/>
      <point x="10" y="746" type="line"/>
      <point x="10" y="900" type="line"/>
    </contour>
  </outline>
</glyph>
<glyph name="perthousand" format="2">
  <advance width="1218"/>
  <unicode hex="2030"/>
  <outline>
    <contour>
      <point x="690" y="671" type="line"/>
      <point x="380" y="1" type="line"/>
      <point x="222" y="1" type="line"/>
      <point x="532" y="671" type="line"/>
    </contour>
    <contour>
      <point x="218" y="451" type="line"/>
      <point x="218" y="554" type="line"/>
      <point x="154" y="554" type="line"/>
      <point x="154" y="451" type="line"/>
    </contour>
    <contour>
      <point x="340" y="329" type="line"/>
      <point x="33" y="329" type="line"/>
      <point x="33" y="676" type="line"/>
      <point x="340" y="676" type="line"/>
    </contour>
    <contour>
      <point x="751" y="123" type="line"/>
      <point x="751" y="226" type="line"/>
      <point x="687" y="226" type="line"/>
      <point x="687" y="123" type="line"/>
    </contour>
    <contour>
      <point x="873" y="1" type="line"/>
      <point x="566" y="1" type="line"/>
      <point x="566" y="348" type="line"/>
      <point x="873" y="348" type="line"/>
    </contour>
    <contour>
      <point x="1088" y="123" type="line"/>
      <point x="1088" y="226" type="line"/>
      <point x="1024" y="226" type="line"/>
      <point x="1024" y="123" type="line"/>
    </contour>
    <contour>
      <point x="1210" y="1" type="line"/>
      <point x="903" y="1" type="line"/>
      <point x="903" y="348" type="line"/>
      <point x="1210" y="348" type="line"/>
    </contour>
  </outline>
</glyph>
<glyph name="guilsinglleft" format="2">
  <advance width="469"/>
  <unicode hex="2039"/>
  <outline>
    <contour>
      <point x="17" y="334" type="line"/>
      <point x="249" y="512" type="line"/>
      <point x="450" y="512" type="line"/>
      <point x="148" y="281" type="line"/>
      <point x="450" y="51" type="line"/>
      <point x="249" y="51" type="line"/>
      <point x="17" y="229" type="line"/>
    </contour>
  </outline>
</glyph>
<glyph name="guilsinglright" format="2">
  <advance width="469"/>
  <unicode hex="203A"/>
  <outline>
    <contour>
      <point x="450" y="229" type="line"/>
      <point x="218" y="51" type="line"/>
      <point x="17" y="51" type="line"/>
      <point x="319" y="281" type="line"/>
      <point x="17" y="512" type="line"/>
      <point x="218" y="512" type="line"/>
      <point x="450" y="334" type="line"/>
    </contour>
  </outline>
</glyph>
<glyph name="Euro" format="2">
  <advance width="663"/>
  <unicode hex="20AC"/>
  <outline>
    <contour>
      <point x="435" y="317" type="line"/>
      <point x="435" y="259" type="line"/>
      <point x="276" y="259" type="line"/>
      <point x="276" y="188" type="line"/>
      <point x="636" y="188" type="line"/>
      <point x="636" y="0" type="line"/>
      <point x="88" y="0" type="line"/>
      <point x="88" y="259" type="line"/>
      <point x="17" y="259" type="line"/>
      <point x="17" y="317" type="line"/>
      <point x="88" y="317" type="line"/>
      <point x="88" y="362" type="line"/>
      <point x="17" y="362" type="line"/>
      <point x="17" y="420" type="line"/>
      <point x="88" y="420" type="line"/>
      <point x="88" y="676" type="line"/>
      <point x="636" y="676" type="line"/>
      <point x="636" y="488" type="line"/>
      <point x="276" y="488" type="line"/>
      <point x="276" y="420" type="line"/>
      <point x="435" y="420" type="line"/>
      <point x="435" y="362" type="line"/>
      <point x="276" y="362" type="line"/>
      <point x="276" y="317" type="line"/>
    </contour>
  </outline>
</glyph>
<glyph name="trademark" format="2">
  <advance width="586"/>
  <unicode hex="2122"/>
  <outline>
    <contour>
      <point x="561" y="676" type="line"/>
      <point x="561" y="598" type="line"/>
      <point x="537" y="598" type="line"/>
      <point x="537" y="491" type="line" smooth="yes"/>
      <point x="537" y="485"/>
      <point x="542" y="478"/>
      <point x="547" y="476"/>
      <point x="552" y="476" type="qcurve"/>
      <point x="552" y="476"/>
      <point x="553" y="476" type="qcurve"/>
      <point x="553" y="476"/>
      <point x="553" y="476" type="qcurve"/>
      <point x="554" y="476"/>
      <point x="555" y="476" type="qcurve"/>
      <point x="555" y="476"/>
      <point x="555" y="476" type="qcurve"/>
      <point x="555" y="476"/>
      <point x="556" y="476" type="qcurve"/>
      <point x="556" y="476"/>
      <point x="556" y="476" type="qcurve"/>
      <point x="560" y="476" type="line"/>
      <point x="560" y="476"/>
      <point x="560" y="476" type="qcurve"/>
      <point x="561" y="476" type="line"/>
      <point x="561" y="399" type="line"/>
      <point x="537" y="399" type="line" smooth="yes"/>
      <point x="512" y="399"/>
      <point x="482" y="414"/>
      <point x="466" y="441"/>
      <point x="461" y="478"/>
      <point x="461" y="498" type="qcurve" smooth="yes"/>
      <point x="461" y="598" type="line"/>
      <point x="446" y="598" type="line"/>
      <point x="446" y="498" type="line"/>
      <point x="368" y="498" type="line"/>
      <point x="368" y="598" type="line"/>
      <point x="353" y="598" type="line"/>
      <point x="353" y="498" type="line" smooth="yes"/>
      <point x="353" y="474"/>
      <point x="347" y="437"/>
      <point x="329" y="412"/>
      <point x="296" y="399"/>
      <point x="269" y="399" type="qcurve" smooth="yes"/>
      <point x="253" y="399" type="line"/>
      <point x="253" y="476" type="line"/>
      <point x="253" y="476"/>
      <point x="254" y="476" type="qcurve"/>
      <point x="254" y="476"/>
      <point x="254" y="476" type="qcurve"/>
      <point x="255" y="476" type="line"/>
      <point x="256" y="476"/>
      <point x="256" y="476" type="qcurve"/>
      <point x="256" y="476"/>
      <point x="257" y="476" type="qcurve"/>
      <point x="257" y="476"/>
      <point x="257" y="476" type="qcurve"/>
      <point x="258" y="476"/>
      <point x="258" y="476" type="qcurve"/>
      <point x="261" y="476" type="line"/>
      <point x="261" y="476"/>
      <point x="261" y="476" type="qcurve"/>
      <point x="262" y="476" type="line"/>
      <point x="266" y="476"/>
      <point x="273" y="478"/>
      <point x="276" y="485"/>
      <point x="276" y="491" type="qcurve" smooth="yes"/>
      <point x="276" y="598" type="line"/>
      <point x="253" y="598" type="line"/>
      <point x="253" y="676" type="line"/>
      <point x="368" y="676" type="line"/>
      <point x="368" y="691" type="line"/>
      <point x="446" y="691" type="line"/>
      <point x="446" y="676" type="line"/>
    </contour>
    <contour>
      <point x="169" y="492" type="line" smooth="yes"/>
      <point x="169" y="485"/>
      <point x="172" y="478"/>
      <point x="179" y="476"/>
      <point x="183" y="476" type="qcurve"/>
      <point x="183" y="476"/>
      <point x="184" y="476" type="qcurve"/>
      <point x="184" y="476"/>
      <point x="184" y="476" type="qcurve"/>
      <point x="185" y="476" type="line"/>
      <point x="185" y="476"/>
      <point x="186" y="476" type="qcurve"/>
      <point x="186" y="476"/>
      <point x="186" y="476" type="qcurve"/>
      <point x="186" y="476"/>
      <point x="187" y="476" type="qcurve"/>
      <point x="187" y="476"/>
      <point x="187" y="476" type="qcurve"/>
      <point x="190" y="476" type="line"/>
      <point x="190" y="476"/>
      <point x="190" y="476" type="qcurve"/>
      <point x="191" y="476" type="line"/>
      <point x="191" y="399" type="line"/>
      <point x="161" y="399" type="line" smooth="yes"/>
      <point x="146" y="399"/>
      <point x="121" y="410"/>
      <point x="103" y="429"/>
      <point x="91" y="453"/>
      <point x="91" y="468" type="qcurve" smooth="yes"/>
      <point x="91" y="598" type="line"/>
      <point x="22" y="598" type="line"/>
      <point x="22" y="676" type="line"/>
      <point x="238" y="676" type="line"/>
      <point x="238" y="598" type="line"/>
      <point x="169" y="598" type="line"/>
    </contour>
  </outline>
</glyph>
